/* XPM */
static char *result[] = {
/* columns rows colors chars-per-pixel */
"30 30 4 1 ",
"  c black",
". c red",
"X c #2600FF",
"o c None",
/* pixels */
"ooooooo   ..........   ooooooo",
"ooooo  ................  ooooo",
"oooo  ..................  oooo",
"ooo  ....................  ooo",
"oo  .........    .........  oo",
"o  .......          .......  o",
"o .......            ....... o",
" .......              ....... ",
" ......                ...... ",
" .....                  ..... ",
".....                    .....",
".....         XX         .....",
".....        XXXX        .....",
"....        XXXXXX        ....",
"....       XXXXXXXX       ....",
"....       XXXXXXXX       ....",
"....        XXXXXX        ....",
".....        XXXX        .....",
".....         XX         .....",
".....                    .....",
" .....                  ..... ",
" ......                ...... ",
" .......              ....... ",
"o .......            ....... o",
"o  .......          .......  o",
"oo  .........    .........  oo",
"ooo  ....................  ooo",
"oooo  ..................  oooo",
"ooooo  ................  ooooo",
"ooooooo   ..........   ooooooo"
};
