/* XPM */
static char *result[] = {
/* columns rows colors chars-per-pixel */
"30 30 3 1 ",
"  c black",
". c red",
"X c None",
/* pixels */
"XXXXXXXXXX....  ....XXXXXXXXXX",
"XXXXXXX.......  .......XXXXXXX",
"XXXXXXX.......  .......XXXXXXX",
"XXXX..........  ..........XXXX",
"XXX.   .......  .......   .XXX",
"XXX.    ......  ......    .XXX",
"XXX.    ......  ......    .XXX",
"X....     .XXX  XXX.     ....X",
"X......    XXX  XXX    ......X",
"X......    XXX  XXX    ......X",
"........    XX  XX    ........",
".......XXX          XXX.......",
".......XXXX        XXXX.......",
".......XXXX        XXXX.......",
"                              ",
"                              ",
".......XXXX        XXXX.......",
".......XXXX        XXXX.......",
".......XXX          XXX.......",
"........    XX  XX    ........",
"X......    XXX  XXX    ......X",
"X......    XXX  XXX    ......X",
"X....     .XXX  XXX.     ....X",
"XXX.    ......  ......    .XXX",
"XXX.    ......  ......    .XXX",
"XXX.   .......  .......   .XXX",
"XXXX..........  ..........XXXX",
"XXXXXXX.......  .......XXXXXXX",
"XXXXXXX.......  .......XXXXXXX",
"XXXXXXXXXX....  ....XXXXXXXXXX"
};
