/* XPM */
static char *result[] = {
/* columns rows colors chars-per-pixel */
"60 60 5 1 ",
"  c black",
". c red",
"X c #EDB200",
"o c white",
"O c None",
/* pixels */
"OOOOOOOOOOOOOOOOOOX     XOOXXOOOOOOOOOOOOOOOOOOOOOOOOOOOOOOO",
"OOOOOOOOOOOOOOOOOX OOOOO XOXXOOOOOOOOOOOOOOOOOOOOOOOOOOOOOOO",
"OOOOOOOOOOOOOOOOX OOOOOOO XOOOOOOOOOOOOOOOOOOOOOOOOOOOOOOOOO",
"OOOOOOOOOOOOOOOX OOOOOOOOO XOOOOOOOOOOOOOOOOOOOOOOOOOOOOOOOO",
"OOOOOOOOOOOOOOO OOO OOO OOO OOOOOOOOOOO                  OOO",
"OOOOOOOOOOOOOOO OOOOOOOOOOO OOOOOOOOOOO oooooooooooooooo OOO",
"OOOOOOOOOOOOOOO OOOOOOOOOOO OOOOOOOOOOO o...ooo..oo...oo OOO",
"OOOOOOOOOOOOOOO OOOOOOOOOOO OOOOOOOOOOO o.oo.o.oo.o.oo.o OOO",
"OOOOOOOOOOOOOOO OOOOO OOOOO OOOOOOOOOOO o...oo....o.oo.o OOO",
"OOOOOOOOOOOOOOOO OO  O  OO OOOOOOOOOOOO o.oo.o.oo.o.oo.o OOO",
"OOOOOOOOOOOOOOOOO OOOOOOO OOOOOOOOOOOOO o...oo.oo.o...oo OOO",
"OOOOOOOOOOOOOOOOOO OOOOO OOOOOOOOOOOOOO oooooooooooooooo OOO",
"OOOOOOOOOOOOOOOOOOO     OOOOOOOOOOOOOOO                  OOO",
"OOOOOOOOOOOOOOOOOOOOO OOOOOOOOOOOOOOOOO OOOOOOOOOOOOOOOOOOOO",
"OOOOOOOOOOOOOOOOOOOOO OOOOOOOOOOOOOOOOO OOOOOOOOOOOOOOOOOOOO",
"OOOOOOOOOOOOOOOOOOOO   OOOOOOOOOOOOOOOO OOOOOOOOOOOOOOOOOOOO",
"OOOOOOOOOOOOOOOOOOOO  O   OOOOOOOOOOOOO OOOOOOOOOOOOOOOOOOOO",
"OOOOOOOOOOOOOOOOOOO O OOOO   OOOOOOOOOO OOOOOOOOOOOOOOOOOOOO",
"OOOOOOOOOOOOOOOOOOO O OOOOOOO   OOOOOOO OOOOOOOOOOOOOOOOOOOO",
"OOOOOOOOOOOOOOOOOO OO OOOOOOOOOO   OOOO OOOOOOOOOOOOOOOOOOOO",
"OOOOOOOOOOOOOOOOOO OO OOOOOOOOOOOOO   O OOOOOOOOOOOOOOOOOOOO",
"OOOOOOOOOOOOOOOOO OOO OOOOOOOOOOOOOOOO  OOOOOOOOOOOOOOOOOOOO",
"OOOOOOOOOOOOOOOO OOOO OOOOOOOOOOOOOOOOO OOOOOOOOOOOOOOOOOOOO",
"OOOOOOOOOOOOOOOO OOOO OOOOOOOOOOOOOOOOO OOOOOOOOOOOOOOOOOOOO",
"OOOOOOOOOOOOOOO OOOOO OOOOOOOOOOOOOOOOO OOOOOOOOOOOOOOOOOOOO",
"OOOOOOOOOOOOOOO OOOOO OOOOOOOOOOOOOOOOO OOOOOOOOOOOOOOOOOOOO",
"OOOOOOOOOOOOOO OOOOOO OOOOOOOOOOOOOOOOO OOOOOOOOOOOOOOOOOOOO",
"OOOOOOOOOOOOOO OOOOOO OOOOOOOOOOOOOOOOO OOOOOOOOOOOOOOOOOOOO",
"OOOOOOOOOOOOO OOOOOOO OOOOOOOOOOOOOOOOO OOOOOOOOOOOOOOOOOOOO",
"OOOOOOOOOOOOOOOOOOOOO OOOOOOOOOOOOOOOOO OOOOOOOOOOOOOOOOOOOO",
"OOOOOOOOOOOOOOOOOOOOO OOOOOOOOOOOOOOOOOOOOOOOOOOOOOOOOOOOOOO",
"OOOOOOOOOOOOOOOOOOOOO OOOOOOOOOOOOOOOOOOOOOOOOOOOOOOOOOOOOOO",
"OOOOOOOOOOOOOOOOOOOOO OOOOOOOOOOOOOOOOOOOOOOOOOOOOOOOOOOOOOO",
"OOOOOOOOOOOOOOOOOOOOO OOOOOOOOOOOOOOOOOOOOOOOOOOOOOOOOOOOOOO",
"OOOOOOOOOOOOOOOOOOOOO OOOOOOOOOOOOOOOOOOOOOOOOOOOOOOOOOOOOOO",
"OOOOOOOOOOOOOOOOOOOOO OOOOOOOOOOOOOOOOOOOOOOOOOOOOOOOOOOOOOO",
"OOOOOOOOOOOOOOOOOOOOO OOOOOOOOOOOOOOOOOOOOOOOOOOOOOOOOOOOOOO",
"OOOOOOOOOOOOOOOOOOOOO OOOOOOOOOOOOOOOOOOOOOOOOOOOOOOOOOOOOOO",
"OOOOOOOOOOOOOOOOOOOOO OOOOOOOOOOOOOOOOOOOOOOOOOOOOOOOOOOOOOO",
"OOOOOOOOOOOOOOOOOOOOO OOOOOOOOOOOOOOOOOOOOOOOOOOOOOOOOOOOOOO",
"OOOOOOOOOOOOOOOOOOOOO OOOOOOOOOOOOOOOOOOOOOOOOOOOOOOOOOOOOOO",
"OOOOOOOOOOOOOOOOOOOOO OOOOOOOOOOOOOOOOOOOOOOOOOOOOOOOOOOOOOO",
"OOOOOOOOOOOOOOOOOOOOO OOOOOOOOOOOOOOOOOOOOOOOOOOOOOOOOOOOOOO",
"OOOOOOOOOOOOOOOOOOOO O OOOOOOOOOOOOOOOOOOOOOOOOOOOOOOOOOOOOO",
"OOOOOOOOOOOOOOOOOOOO O OOOOOOOOOOOOOOOOOOOOOOOOOOOOOOOOOOOOO",
"OOOOOOOOOOOOOOOOOOO OOO OOOOOOOOOOOOOOOOOOOOOOOOOOOOOOOOOOOO",
"OOOOOOOOOOOOOOOOOOO OOO OOOOOOOOOOOOOOOOOOOOOOOOOOOOOOOOOOOO",
"OOOOOOOOOOOOOOOOOO OOOOO OOOOOOOOOOOOOOOOOOOOOOOOOOOOOOOOOOO",
"OOOOOOOOOOOOOOOOO OOOOOO OOOOOOOOOOOOOOOOOOOOOOOOOOOOOOOOOOO",
"OOOOOOOOOOOOOOOOO OOOOOOO OOOOOOOOOOOOOOOOOOOOOOOOOOOOOOOOOO",
"OOOOOOOOOOOOOOOO OOOOOOOO OOOOOOOOOOOOOOOOOOOOOOOOOOOOOOOOOO",
"OOOOOOOOOOOOOOOO OOOOOOOOO OOOOOOOOOOOOOOOOOOOOOOOOOOOOOOOOO",
"OOOOOOOOOOOOOOO OOOOOOOOOO OOOOOOOOOOOOOOOOOOOOOOOOOOOOOOOOO",
"OOOOOOOOOOOOOOO OOOOOOOOOOO OOOOOOOOOOOOOOOOOOOOOOOOOOOOOOOO",
"OOOOOOOOOOOOOO OOOOOOOOOOOO OOOOOOOOOOOOOOOOOOOOOOOOOOOOOOOO",
"OOOOOOOOOOOOO OOOOOOOOOOOOOO OOOOOOOOOOOOOOOOOOOOOOOOOOOOOOO",
"OOOOOOOOOOOOO OOOOOOOOOOOOOO OOOOOOOOOOOOOOOOOOOOOOOOOOOOOOO",
"OOOOOOOOOOOO OOOOOOOOOOOOOOOO OOOOOOOOOOOOOOOOOOOOOOOOOOOOOO",
"OOOOOOOOOOOO OOOOOOOOOOOOOOOO OOOOOOOOOOOOOOOOOOOOOOOOOOOOOO",
"OOOOOOOOOOO OOOOOOOOOOOOOOOOOO OOOOOOOOOOOOOOOOOOOOOOOOOOOOO"
};
