/* XPM */
static char *result[] = {
/* columns rows colors chars-per-pixel */
"30 30 4 1 ",
"  c black",
". c red",
"X c blue",
"o c None",
/* pixels */
"                              ",
"                              ",
"  ..........................  ",
"  ..........................  ",
"  ....                  ....  ",
"  ....                  ....  ",
"  ..  ..oooooooooooooo..  ..  ",
"  ..  ..oooooooooooooo..  ..  ",
"  ..  oooooooooooooooooo  ..  ",
"  ..  oooooooooooooooooo  ..  ",
"  ..  oooooooooooooooooo  ..  ",
"  ..  oooooooooooooooooo  ..  ",
"  ..  XXXXoXooXoXXXooXXX  ..  ",
"  ..  XooooXooXooXooooXo  ..  ",
"  ..  XXXoooXXoooXooooXo  ..  ",
"  ..  XooooXooXooXooooXo  ..  ",
"  ..  XXXXoXooXoXXXoooXo  ..  ",
"  ..  oooooooooooooooooo  ..  ",
"  ..  oooooooooooooooooo  ..  ",
"  ..  oooooooooooooooooo  ..  ",
"  ..  oooooooooooooooooo  ..  ",
"  ..  oooooooooooooooooo  ..  ",
"  ..  ..oooooooooooooooo  ..  ",
"  ..  ..oooooooooooooooo  ..  ",
"  ....                  ....  ",
"  ....                  ....  ",
"  ..........................  ",
"  ..........................  ",
"                              ",
"                              "
};
