/* XPM */
static char *result[] = {
/* columns rows colors chars-per-pixel */
"60 60 12 1 ",
"  c black",
". c #070057",
"X c gray42",
"o c #91060A",
"O c #D60000",
"+ c #DB9303",
"@ c #EAFF00",
"# c gray79",
"$ c gray85",
"% c #ECECEC",
"& c white",
"* c None",
/* pixels */
"************************************************************",
"************************************************************",
"************************************************************",
"************************************************************",
"************************************************************",
"************************************************************",
"************************************************************",
"************************************************************",
"************************************************************",
"************************************************************",
"************************************************************",
"************************************************************",
"************************************************************",
"************************************************************",
"*****                                    *******************",
"***** &&&&&&&&&&&&&&&&&&&&&&&&&&&&&&&&&$& ******************",
"***** &&&oooo&ooo&&oooo&oooo&&&&&&&&&&&$&&.*****************",
"***** &&&o&%%%o%%o%o%%%&o&&%%%%%%%%%%&&$&&&.****************",
"***** &&&ooo&&ooo&&ooo&%ooo&&&&&&&&&&%&$&&&&.***************",
"***** &&&o%&&&o&o&&o&&&%o&%&&&&&&&&&&%&$   &&.**************",
"***** &&&o%&&&o&&o&oooo%oooo&&&&&&&&&%&$ .. &&.*************",
"***** &&&&%&&&&&&&&&&&&%&&%&&&&&&&&&&%&$ ... &&.************",
"***** &&&&oo%%%oo%%o%%o&ooo%%o%%%o%%%&&$ .... &&.***********",
"***** &&&o&&o&o&&o&oo&o&o&&o&o&&&o&&&&&$ ..... &&.**********",
"***** &&&o&&&&oooo&o&oo&o&&o&&ooo&&&&&&$ ...... && *********",
"***** &&&o&&o&o&&o&o&&o&o&&o&&&o&&&&&&&$        &&&  *******",
"***** &&&&oo&&o&&o&o&&o&ooo&&&&o&&&&&&&$&&&&&&&&&&&&&  *****",
"*****O################################ $&&&&&&&&&&&&&&&  ***",
"*****+&&&&&&&&&&&&&&&&&&&&&&&&&&&&&&&& $&&&&&&&&&&&&&&@@ ***",
"*****O&&&&   &&&&&&&&&&&&&&&&&&&&&&&&&&$&&&&&&&&   &&&&+ ***",
"*****                                                    ***",
"*****      X   &&&&&&&&&&&&&&&&&&&&&&&&&&&&&&&   X       ***",
"*****     X X                                   X X      ***",
"********   X   *******************************   X   *******",
"*********     *********************************     ********",
"**********   ***********************************   *********",
"************************************************************",
"************************************************************",
"************************************************************",
"************************************************************",
"************************************************************",
"************************************************************",
"************************************************************",
"************************************************************",
"************************************************************",
"************************************************************",
"************************************************************",
"************************************************************",
"************************************************************",
"************************************************************",
"************************************************************",
"************************************************************",
"************************************************************",
"************************************************************",
"************************************************************",
"************************************************************",
"************************************************************",
"************************************************************",
"************************************************************",
"************************************************************"
};
