/* XPM */
static char *result[] = {
/* columns rows colors chars-per-pixel */
"30 30 3 1 ",
"  c #127500",
". c #1CBD00",
"X c #2BFF00",
/* pixels */
"                              ",
" .................X..X....... ",
" .........XX.X............... ",
" ........X.X...X.XXX...X..... ",
" ...X.......XX............... ",
" .X........X.X....X.......... ",
" ...............XXXXXXX...X.. ",
" ..........XX.........X.X.X.. ",
" ..XX..........X....X........ ",
" ....X..X...XXX..........X... ",
" X.X.X....................... ",
" .X..X....................... ",
" ....X....X......X....XX.X..X ",
" ......X.XX........X.....X.X. ",
" ...X..........X...X.X...X..X ",
" X.X.....................X... ",
" ..X...X.XXX.....X....XX..... ",
" X.X.....X..X..XXXX....XX.... ",
" .X............X.X.....XX.... ",
" ...X........X............... ",
" .....X..X.X...X..X...X.XXX.. ",
" .......XX......X......X...X. ",
" .X...X...............XX..... ",
" ......XX.....X.....X........ ",
" .....X.......X.............. ",
" .........X.X..X............. ",
" .........X..X.....XX........ ",
" ......XX..XXXX.............. ",
" ................X........... ",
"                              "
};
