/* XPM */
static char *result[] = {
/* columns rows colors chars-per-pixel */
"60 60 6 1 ",
"  c #B5094B",
". c #4C8F18",
"X c #5CBA18",
"o c #F2BE00",
"O c #FFF700",
"+ c white",
/* pixels */
"..X.X.X.X.XX.X..X.X.X...XXX.XXX..XXXXX.XX.X.XXXXXXX...XXX...",
"XX.XXX.XXXXXXX.XXXXXXXXXXXXXXX..XXXXX..X..XXX.XX.X..X.XXXXXX",
"XXXX.XXXX.XX.XXXXX.X.XXX.XXXXXXXXXX.XXX.XXXX.XXXXXXXX.XXX.X.",
"X..XXX.XXX.XXXXXXXXXXXXXX.XXXXXXXX.XXXXXXXXXXXXX..X.XXXX....",
"XXXXXXX.XXXX.X.XXXXXXXXXXXXXXXXXXX.X.XXXXXXXXXX.XX.XXXXXX..X",
".XXXXX.XX.X.XX..XX..X.X.X.XXXXXXX..XXXX.XX.XX.XX...XXXX.XX.X",
"XXX.XXXXX.X.X.XXXXX.XXX.XXXXXXX.XXXXXXX.XXXXXX.XXXXXXX...XX.",
"XXXXX.XX.+XXXXX.XXXX.XXXXXXXX.XXXXXXXX.XXXX.X.XXXX.XXXX.XXXX",
"XXX.XXXX+O+XX+XX.XXX...XX.XXXX.X.XXXX.XXX.XXXX.XXXX. XX.XXXX",
"XXX.XXXXX+XX+O+XXX.X.XXXXX.XXXX..XXX.X..XX.XXX.XXXX o X.X..X",
"XXXX.XXX..XXX+XXX.XXXX.XX.XXXX.XXX..X.XXXX.XX.XXX.X. .X XXX.",
"XX..XXXX.XX+XXXXXXXX.XX..XXXXXX.XX.XXXXX.XXX.XXXX.X.XX o XX.",
"XXXXXXXXXX+O+XX..XX.XXXX..X..XX.XXXXXX.X.X..XXXXXX.X XX XXXX",
"XX....XXXXX+..XXXXXX.XX...XXXX...XXXXXXXXXXXX.XXXXX o XX.XXX",
"XXXX...X.XX.X..X..XXXX.XXXXX.XXXX..XXX.XXX.XXXX.XXXX XX.XXXX",
"XXXXXXXXX.XXXXXXXXX..X..XXX.XX..XXX...X.X.XXX...XX.XXX.X..XX",
"XXXXXXXXX...XXXXXXXXX.X.XXXXXX.XXXXXXX.X.XXXXXXXXX.XX.XXXXXX",
"XXX.XX.XX.XXX.XXXXXXX.X.XX.XXXXX.XX..X.XXXXXXX..XXX.X.XXX.XX",
"..XXXXXXXXXXX.XXXXX.XXXXX..XX.X..XXXXXXXX.X.XXXX.XXXXX.X..XX",
".XXXXXXXXXXXXXX..XXXXXXXXXXXXXXXXX.XX.XXX..XXXXXX...XXXXXX..",
"XXX.XX.XXXXXX.XX.XXXX.X.XX.XXX.X.XXX.XX.X.X.X.X.XXX.XXXXXXXX",
"X.XX.XXXXXXX.X.X.XX.X.X.X..X.XXX.XXXXX..XXX.XXX...XX.X.X..XX",
"XXXXXXX.XXXXXXX.XXXXXXXXXXXX.XXXXXX.XX.X.XXXXXXXXXXXXXXXX.X.",
"XXXX.XXXXX.XXX.X..XXXXX.XXXXX.XXXXXXXXXX.XXXXXXX.XXXX.XXX...",
"XXXXXXXXXXXX..XX.X.XX.XXX..XX..X.XX.X.XXXXXXX.XXXXXXX..XXX.X",
"XXXXX.XXXXXXX..XXXXXXXXXXXXXXXXX.XXXXXX.XXXXX.XX.X..XXXXX..X",
"XX.X.XX..XXXXX.X.XX.XXXXXXXXXXXXXXXXX.XXX.XXXXX.XXXXXXXXXXX.",
"XXXXXXXXXXXXX.X.XXXXXXX..XXXX..XXXXXXXXX..XXXX.XXXX.XX.X.XXX",
".XX.X.X.XXXXXXX.XXXXX.X.XXXXX.XX.XXX..XXXXXXXXXXX.XXXXXXXX..",
"X.XXX.XX.XXXXXXXX..XX.XX.XX.XXX.X..X.XXXX.X...XXXXXX.XXX.XX.",
"XXXXXX.XXX.XXXXXXXXXX.X.XXX.XX.XXXX.XXX.X.XXX.X.XXXXXXXXXXXX",
"XXX..XXXXXX.XXX.XXXX.X.XXXXXXXXXXXXXXXX..XXXXXX..X.XXX.X.XXX",
"XXXXXXX.X..X.X...X.XXX.XXX..XXXXX.XX.XX.X.XXX..XXXXXXXXXXXXX",
"X.XXXX.XXXXXX..XXX.X..X.X.X.XXXXXXX.XXXXXXXXXX.XX.X.XXXXXXXX",
"XX.XXX.X.X..XXXXXXXXX.XX.XXX.XX.XX...XXXXXXXXX.X.XXXXXXX..X.",
"XXXXXXXXXXXXX.XXX..X.XXXX.X.X.XXX..XXXXXXXXXXX..X.XX.XXXXXX.",
"..X.XXXXXXXX.XXXXXXX.X..XXXXXXXXX.XXX.XXX.X.XXXXXXXXXXXXXXXX",
".XXXX.XX....X.XXXXXX.X.X..X+...X..XX.X.XXXX.XXX.XX XX.X.X.X.",
"XXXX.XXXXXXXXXXX.XXXXXX+X.+O+X..XXXXXXXXXXXXX.XXX o .XXXXX.X",
"XXXXXXXXX.XX.XXX.XXXX.+O+XX+XXXX.XXXX.XXXXXX.XX XX XXX.XXX..",
".XX.XXXXXXXXXXXXX.XX..X+XXXXX.XXXX.X.XXXXXXX.X o XX.XXX.XXXX",
"X.XXX.XXXX....XXXXX.XXX.XXXXX+XX..X.XX.XXXXXX.X X.X XXX.X.X.",
"XX.XXXX.XXXXXXXX.XXXXXX.X.XX+O+XXXXXXXXXX...XXXXXX o XX.XXXX",
".XX.XXXX.X..XXXXX.XXXXXXX+XX.+..XXXX.X.XXXXXX.X. XX XXXX.XXX",
"..XX.XX.XX.XXXXX..XXX.X.+O+XXX.X.XXX.XX...XXXX. o XX. X.XXXX",
"XX.XXXX.XXXXXX.X.X.XXXX.X+XXXX..X.X.XXXX.XX.XX.X .XX o XX..X",
"..XXXXXXXX.XX.X.XXXXX.XX..XX.XX.XXXXXXXXX.XXXXXXXX XX X.XXXX",
"XXXXXX.XXX.XXXXXXXXXXXXX.X...XXX..XXX.XXXXXXXXX.. o .XXXXXXX",
"XXXXXXXXXXXX.XXXX.XXXX.XXX.XXXXXXXXXXXXXXXX.X.XXX. XXX.X..XX",
".XXXXX.XXX.XXX..X..XXXXXX.XXXXXX.XX..XXX.X.XXXX.X.XXX.XXXXXX",
"XXX.XXXXXXXXXXXX..XXXXXXXXXX.XXXXXXXX.X..XX..XXXXXXXXXXX.XX.",
"XXXXX.XX.XXXXXX.XX.XX.XXXXXXXX.X.X.XX..X.X.X.XXX..XXX.XXXXX.",
"XX..X.X.XXX..X.XXXXXXXX.XXXXXXX..X.XXXXX.XXX.XXX.XXXXX.XXXXX",
"X...X.X.XXXX.XXXX.X....XXXX.X.XX...XXXXXXXXX..XXX.XX.XXX..XX",
".XXXXXXXXXX.XX.X.XXXXXXXX..XXXXXXXXXXXXXXXX.XXXXXXXXXXXXXXXX",
"X.XXX.XX.X.XXXXXXXXX.XXXXX.XXXXXX.X.XX..XX..XXXX.XX.XXXXX.X.",
"...XXX.XXXX..XXXXX.X.XXXXXXXX.X...X.XXX.XXX..X.X..XXXXXXXXX.",
".XXXXXX..XXXX.XXXXXXXXX.XXXX.XXX.XXXX.XX.XX..XXXX.XXXXXXXXXX",
".XXXXXXXXX.XXXXXXXXXXX.XX..XXXXXXXXX...XXXXXX.X.XXXX..X.X.XX",
"XX.XXXXXXX.X.XXXXXX.XXXXXXX...XXXX.X.XX.X.XXXXXXX.XXXXXX...."
};
