/* XPM */
static char *result[] = {
/* columns rows colors chars-per-pixel */
"30 30 4 1 ",
"  c black",
". c magenta",
"X c #00D9FF",
"o c None",
/* pixels */
"oooooooooooooooooooooo ooooooo",
"ooooooooooooooooooooo . oooooo",
"ooooooooooooooooooooo .. ooooo",
"ooooooooooooooooooooo ... oooo",
"ooooooooooooooooooooo .... ooo",
"ooooooooooooooooooooo ..... oo",
"ooooooooooooooooooooo ...... o",
"ooooooooooooo     ooo ....... ",
"ooooooooooo  ..X..  o        o",
"oooooooooo .X....... ooooooooo",
"ooooooooo .X....X..X. oooooooo",
"oooooooo .........XX.. ooooooo",
"oooooooo ......X....X. ooooooo",
"ooooooo ..X...X.X.X.... oooooo",
"ooooooo ...........X... oooooo",
"ooooooo .X..XX..X.X.... oooooo",
"ooooooo ..X......XX.... oooooo",
"ooooooo ............X.. oooooo",
"oooooooo .....XXX...X. ooooooo",
"oooooooo ...X.....XX.. ooooooo",
"ooooooooo .X...X.X... oooooooo",
"o        o ..X...X.. ooooooooo",
" ....... oo  .X...  oooooooooo",
"o ...... oooo     oooooooooooo",
"oo ..... ooooooooooooooooooooo",
"ooo .... ooooooooooooooooooooo",
"oooo ... ooooooooooooooooooooo",
"ooooo .. ooooooooooooooooooooo",
"oooooo . ooooooooooooooooooooo",
"ooooooo oooooooooooooooooooooo"
};
