/* XPM */
static char *result[] = {
/* columns rows colors chars-per-pixel */
"60 60 4 1 ",
"  c black",
". c #BF1FBF",
"X c #E817E8",
"o c None",
/* pixels */
"oooooooooooooooooooooooooooooooooooooooooooooooooooooooooooo",
"ooooooooo    ooooooooooooooooooooooooooooooooooooooooooooooo",
"ooooooooo ..  oooooooooooooooooooooooooooooooooooooooooooooo",
"oooooooo .....  oooooooooooooooooooooooooooooooooooooooooooo",
"oooooooo .X....  ooooooooooooooooooooooooooooooooooooooooooo",
"ooooooo ....X..X. oooooooooooooooooooooooooooooooooooooooooo",
"ooooooo .X...X..X. ooooooooooooooooooooooooooooooooooooooooo",
"ooooo  X..X..X....  oooooooooooooooooooooooooooooooooooooooo",
"ooo  X.XXX.....X...  ooooooooooooooooooooooooooooooooooooooo",
"o  ..XXX.XXX...X.... ooooooooooooooooooooooooooooooooooooooo",
"o ..X.....X..XXXX.... oooooooooooooooooooooooooooooooooooooo",
"o ....XX.XX.X....X... oooooooooooooooooooooooooooooooooooooo",
"o  ..X.......X.XX..X. oooooooooooooooooooooooooooooooooooooo",
"oo ....X.XXX......X..  ooooooooooooooooooooooooooooooooooooo",
"ooo .....X.X.X....X.X. ooooooooooooooooooooooooooooooooooooo",
"ooo  .X.....X.X.X..... oooo       oooooooooooooooooooooooooo",
"oooo X.............X. oo   .......   ooooooooooooooooooooooo",
"ooooo ...X.XX.X...X.. o .X..XX....... oooooooooooooooooooooo",
"oooooo  ..X...X.X...   .X..XX..XX.XXX.  oooooooooooooooooooo",
"ooooooo  ...X..X.... .........XXX.X..X.. ooooooooooooooooooo",
"oooooooo  ........  .......X.XXXX.XX..... oooooooooooooooooo",
"oooooooooo    ..    ...XX..X....XX.XX.X.. oooooooooooooooooo",
"ooooooooooooo   oo ..XXX...X..X.....X..X.. ooooooooooooooooo",
"ooooooooooooooooo .....X...X.X.X....X.X.XX. oooooooooooooooo",
"ooooooooooooooooo .XX....X...XXX..X.XX.X... oooooooooooooooo",
"ooooooooooooooooo X.XX.XX...X..X......X.X.. oooooooooooooooo",
"oooooooooooooooo ..XX...................X.X. ooooooooooooooo",
"oooooooooooooooo .XX.XX......X...XXX.X....X. ooooooooooooooo",
"oooooooooooooooo .X.X.XX......XXXX.XXX....X. ooooooooooooooo",
"oooooooooooooooo .X...X..X.XX..X.XXX.XX..X.. ooooooooooooooo",
"oooooooooooooooo ...X.X.X..XX..XXXXX.....XXX ooooooooooooooo",
"oooooooooooooooo ........X....X...X.X....... ooooooooooooooo",
"oooooooooooooooo ....X.....X.X..X.X....XX.X. ooooooooooooooo",
"ooooooooooooooooo ...X..X......X......X.X.X oooooooooooooooo",
"ooooooooooooooooo .X..X..XX..X.....XXXX.... oooooooooooooooo",
"ooooooooooooooooo ....XX..X......X.X.X..X.. oooooooooooooooo",
"oooooooooooooooooo ........X.....XX..XX... ooooooooooooooooo",
"ooooooooooooooooooo .....X.X..XXXX......X oo   ooooooooooooo",
"ooooooooooooooooooo ........XX.XX......X.   ..    oooooooooo",
"oooooooooooooooooooo ..X......X...XX....  ........  oooooooo",
"ooooooooooooooooooooo  ..X....XX...X..  ....X..X...  ooooooo",
"ooooooooooooooooooooooo .X...XXXXX...   ...X.X...X..  oooooo",
"oooooooooooooooooooooooo   ...XX..   o ..X...X.XX.X... ooooo",
"ooooooooooooooooooooooooooo       oooo .X.............X oooo",
"ooooooooooooooooooooooooooooooooooooo .....X.X.X.....X.  ooo",
"ooooooooooooooooooooooooooooooooooooo .X.X....X.X.X..... ooo",
"ooooooooooooooooooooooooooooooooooooo  ..X......XXX.X.... oo",
"oooooooooooooooooooooooooooooooooooooo .X..XX.X.......X..  o",
"oooooooooooooooooooooooooooooooooooooo ...X....X.XX.XX.... o",
"oooooooooooooooooooooooooooooooooooooo ....XXXX..X.....X.. o",
"ooooooooooooooooooooooooooooooooooooooo ....X...XXX.XXX..  o",
"ooooooooooooooooooooooooooooooooooooooo  ...X.....XXX.X  ooo",
"oooooooooooooooooooooooooooooooooooooooo  ....X..X..X  ooooo",
"ooooooooooooooooooooooooooooooooooooooooo .X..X...X. ooooooo",
"oooooooooooooooooooooooooooooooooooooooooo .X..X.... ooooooo",
"ooooooooooooooooooooooooooooooooooooooooooo  ....X. oooooooo",
"oooooooooooooooooooooooooooooooooooooooooooo  ..... oooooooo",
"oooooooooooooooooooooooooooooooooooooooooooooo  .. ooooooooo",
"ooooooooooooooooooooooooooooooooooooooooooooooo    ooooooooo",
"oooooooooooooooooooooooooooooooooooooooooooooooooooooooooooo"
};
