/* XPM */
static char *result[] = {
/* columns rows colors chars-per-pixel */
"60 60 4 1 ",
"  c black",
". c #BF1FBF",
"X c #E817E8",
"o c None",
/* pixels */
"oooooooooooooooooooooooooooooooooooooooooooooooooooooooooooo",
"ooooooooooooooooooooooooooooooooooooooooooooooo    ooooooooo",
"oooooooooooooooooooooooooooooooooooooooooooooo  .. ooooooooo",
"oooooooooooooooooooooooooooooooooooooooooooo  ..... oooooooo",
"ooooooooooooooooooooooooooooooooooooooooooo  ....X. oooooooo",
"oooooooooooooooooooooooooooooooooooooooooo .X..X.... ooooooo",
"ooooooooooooooooooooooooooooooooooooooooo .X..X...X. ooooooo",
"oooooooooooooooooooooooooooooooooooooooo  ....X..X..X  ooooo",
"ooooooooooooooooooooooooooooooooooooooo  ...X.....XXX.X  ooo",
"ooooooooooooooooooooooooooooooooooooooo ....X...XXX.XXX..  o",
"oooooooooooooooooooooooooooooooooooooo ....XXXX..X.....X.. o",
"oooooooooooooooooooooooooooooooooooooo ...X....X.XX.XX.... o",
"oooooooooooooooooooooooooooooooooooooo .X..XX.X.......X..  o",
"ooooooooooooooooooooooooooooooooooooo  ..X......XXX.X.... oo",
"ooooooooooooooooooooooooooooooooooooo .X.X....X.X.X..... ooo",
"ooooooooooooooooooooooooooo       ooo .....X.X.X.....X.  ooo",
"oooooooooooooooooooooooo   .......   o .X.............X oooo",
"ooooooooooooooooooooooo .X..XX.......  ..X...X.XX.X... ooooo",
"ooooooooooooooooooooo  .X..XX..XX.XXX.  ...X.X...X..  oooooo",
"oooooooooooooooooooo .........XXX.X..X. ....X..X...  ooooooo",
"ooooooooooooooooooo .......X.XXXX.XX....  ........  oooooooo",
"ooooooooooooooooooo ...XX..X....XX.XX.X..   ..    oooooooooo",
"oooooooooooooooooo ..XXX...X..X.....X..X.. o   ooooooooooooo",
"ooooooooooooooooo .....X...X.X.X....X.X.XX. oooooooooooooooo",
"ooooooooooooooooo .XX....X...XXX..X.XX.X... oooooooooooooooo",
"ooooooooooooooooo XXXX.XX...X..X......X.... oooooooooooooooo",
"oooooooooooooooo ..XX.....................X. ooooooooooooooo",
"oooooooooooooooo .XX.XX......X...XXX.X....X. ooooooooooooooo",
"oooooooooooooooo .X.X.XX......XXXX.XXX....X. ooooooooooooooo",
"oooooooooooooooo .X...X..X.XX..X.XXX.XX..X.. ooooooooooooooo",
"oooooooooooooooo ...X.X.X..XX..XXXXX.....XXX ooooooooooooooo",
"oooooooooooooooo ......X.X....X...X......... ooooooooooooooo",
"oooooooooooooooo ....X.....X.X..X.X....XX.X. ooooooooooooooo",
"ooooooooooooooooo ...X..X......X......X.X.X oooooooooooooooo",
"ooooooooooooooooo .X..X..XX..X.....XXXX.... oooooooooooooooo",
"ooooooooooooooooo ....XX..X......X.X.X..X.. oooooooooooooooo",
"oooooooooooooooooo ........X.....XX..XX... ooooooooooooooooo",
"ooooooooooooo   ooo .....X.X..XXXX......X oooooooooooooooooo",
"oooooooooo    ..    ........XX.XX......X. oooooooooooooooooo",
"oooooooo  ........   ..X......X...XX.... ooooooooooooooooooo",
"ooooooo  ...X..X....   ..X....XX...X..  oooooooooooooooooooo",
"oooooo  ..X...X.X...  o .X...XXXXX... oooooooooooooooooooooo",
"ooooo ...X.XX.X...X.. oo   ...XX..   ooooooooooooooooooooooo",
"oooo X.............X. ooooo       oooooooooooooooooooooooooo",
"ooo  .X.....X.X.X..... ooooooooooooooooooooooooooooooooooooo",
"ooo .....X.X.X....X.X. ooooooooooooooooooooooooooooooooooooo",
"oo ....X.XXX......X..  ooooooooooooooooooooooooooooooooooooo",
"o  ..X.......X.XX..X. oooooooooooooooooooooooooooooooooooooo",
"o ....XX.XX.X....X... oooooooooooooooooooooooooooooooooooooo",
"o ..X.....X..XXXX.... oooooooooooooooooooooooooooooooooooooo",
"o  ..XXX.XXX...X.... ooooooooooooooooooooooooooooooooooooooo",
"ooo  X.XXX.....X...  ooooooooooooooooooooooooooooooooooooooo",
"ooooo  X..X..X....  oooooooooooooooooooooooooooooooooooooooo",
"ooooooo .X...X..X. ooooooooooooooooooooooooooooooooooooooooo",
"ooooooo ....X..X. oooooooooooooooooooooooooooooooooooooooooo",
"oooooooo .X....  ooooooooooooooooooooooooooooooooooooooooooo",
"oooooooo .....  oooooooooooooooooooooooooooooooooooooooooooo",
"ooooooooo ..  oooooooooooooooooooooooooooooooooooooooooooooo",
"ooooooooo    ooooooooooooooooooooooooooooooooooooooooooooooo",
"oooooooooooooooooooooooooooooooooooooooooooooooooooooooooooo"
};
