/* XPM */
static char *ZmluYWxfaXRlbQ__[] = {
/* columns rows colors chars-per-pixel */
"60 60 8 1 ",
"  c black",
". c #710B4C",
"X c #A1106C",
"o c #851585",
"O c #861686",
"+ c #BF1FBF",
"@ c #E6179A",
"# c None",
/* pixels */
"############################################################",
"############################################################",
"############################################################",
"############################################################",
"############################################################",
"############################################################",
"############################################################",
"#########################################   ################",
"######################################## X.X ###############",
"######################################## XX. ###############",
"####################################### +   + ##############",
"####################################### ++O++ ##############",
"####################################### @@O@+@ #############",
"###################################### @++O+@+O ############",
"###################################### +++O@+o++  ##########",
"###################################### +@+o+o++@++  ########",
"##################################### +++@+O+@+@+ .X #######",
"##################################### @+@+O@OOOoO X. #######",
"##################################### +++O+++@+++ XX #######",
"#################################### ++@o+@+@+++@+  ########",
"############################     ### @+O++++++@   ##########",
"##########################  +@@++  # +O++@++   #############",
"########################  +@+++++++ +O+@+   ################",
"####################### ++@++@++@+@ O+   ###################",
"####################### +@+++++@++++  ######################",
"###################### +@++@+@+++++@@+ #####################",
"###################### +@+@+@+@+++++++ #####################",
"##################### @+++@@+@@+@+@@+++ ####################",
"##################### ++++++@+++@@+++@@ ####################",
"##################### +@++@++@++++@@@+@ ####################",
"##################### +++++@++@+++@+@@+ ####################",
"##################### ++@++@+@@@+@@+@++ ####################",
"###################### @++@+@@+@++++++ #####################",
"###################### +@+++@+@+@++@@+ #####################",
"#######################  +@@+@+++@+++ ######################",
"####################   +O +@++++@++@+ ######################",
"#################   +@+O+ +++@+++@@  #######################",
"##############   ++@++O+ #  +++@+  #########################",
"###########   +@+@++@O+@ ###     ###########################",
"#########  @+@@+++@+O@++ ###################################",
"######## X. ++++@@+O++@ ####################################",
"######## .X OOOOO+O@+@+ ####################################",
"######## X. ++@+@O+++++ ####################################",
"#########  +@@++O+O++@ #####################################",
"###########  +@O@+O@++ #####################################",
"############# O@+@O+@+ #####################################",
"############## +++O@+ ######################################",
"############### @+O++ ######################################",
"############### +   + ######################################",
"################ X.X #######################################",
"################ XX. #######################################",
"#################   ########################################",
"############################################################",
"############################################################",
"############################################################",
"############################################################",
"############################################################",
"############################################################",
"############################################################",
"############################################################"
};
