/* XPM */
static char *ZmluYWxfaXRlbTE_[] = {
/* columns rows colors chars-per-pixel */
"60 60 8 1 ",
"  c black",
". c #710B4C",
"X c #A1106C",
"o c #851585",
"O c #861686",
"+ c #BF1FBF",
"@ c #E6179A",
"# c None",
/* pixels */
"############################################################",
"############################################################",
"############################################################",
"############################################################",
"############################################################",
"############################################################",
"############################################################",
"#################   ########################################",
"################ ..X #######################################",
"################ XX. #######################################",
"############### +   + ######################################",
"############### ++o++ ######################################",
"############## @+@o@@ ######################################",
"############# o+@+o++@ #####################################",
"###########  ++o+@o+++ #####################################",
"#########  ++@++o+o+@+ #####################################",
"######## X. +@+@+o+@+++ ####################################",
"######## .X ooooo@o+@+@ ####################################",
"######## X. +++@+++o+++ ####################################",
"#########  +@+++@+@+o@++ ###################################",
"###########   @++++++o+@ ###     ###########################",
"##############   ++@++o+ #  ++@@+  #########################",
"#################   +@+o+ +++++++@+  #######################",
"####################   +o @+@++@++@++ ######################",
"#######################  ++++@+++++@+ ######################",
"###################### +@@+++++@+@++@+ #####################",
"###################### +++++++@+@+@+@+ #####################",
"##################### +++@@+@+@@+@@+++@ ####################",
"##################### @@+++@@+++@++++++ ####################",
"##################### @+@@@++++@++@++@+ ####################",
"##################### +@@+@+++@++@+++++ ####################",
"##################### ++@+@@+@@@+@++@++ ####################",
"###################### ++++++@+@@+@++@ #####################",
"###################### +@@++@+@+@+++@+ #####################",
"####################### +++@+++@+@@+  ######################",
"####################### +@++@++++@+ O+   ###################",
"########################  @@+++@+++ +o+@+   ################",
"##########################  +@+++  # +o++@++   #############",
"############################     ### @+o@++@+@+   ##########",
"#################################### ++@O+@+++@@+@  ########",
"##################################### @++O+@@++++ .X #######",
"##################################### +@+@O+OOOOO X. #######",
"##################################### +++++O@+@++ XX #######",
"###################################### @++O+O++@@+  ########",
"###################################### ++@O+@O@+  ##########",
"###################################### +@+O@+@O ############",
"####################################### +@O+++ #############",
"####################################### ++O+@ ##############",
"####################################### +   + ##############",
"######################################## XX. ###############",
"######################################## X.X ###############",
"#########################################   ################",
"############################################################",
"############################################################",
"############################################################",
"############################################################",
"############################################################",
"############################################################",
"############################################################",
"############################################################"
};
