/* XPM */
static char *result[] = {
/* columns rows colors chars-per-pixel */
"30 30 4 1 ",
"  c black",
". c magenta",
"X c #00D9FF",
"o c None",
/* pixels */
"ooooooo oooooooooooooooooooooo",
"oooooo . ooooooooooooooooooooo",
"ooooo .. ooooooooooooooooooooo",
"oooo ... ooooooooooooooooooooo",
"ooo .... ooooooooooooooooooooo",
"oo ..... ooooooooooooooooooooo",
"o ...... ooooooooooooooooooooo",
" ....... oooo     oooooooooooo",
"o        oo  ..X..  oooooooooo",
"ooooooooo  .X....... ooooooooo",
"ooooooooo .X....X..X. oooooooo",
"oooooooo .........XX.. ooooooo",
"oooooooo ......X....X. ooooooo",
"ooooooo ..X...X.X.X.... oooooo",
"ooooooo ...........X... oooooo",
"ooooooo .X..XX..X.X.... oooooo",
"ooooooo ..X......XX.... oooooo",
"ooooooo ............X.. oooooo",
"oooooooo .....XXX...X. ooooooo",
"oooooooo ...X.....XX.. ooooooo",
"ooooooooo .X...X.X... oooooooo",
"oooooooooo ..X...X..         o",
"ooooooooooo  .X...  o ....... ",
"ooooooooooooo     ooo ...... o",
"ooooooooooooooooooooo ..... oo",
"ooooooooooooooooooooo .... ooo",
"ooooooooooooooooooooo ... oooo",
"ooooooooooooooooooooo .. ooooo",
"ooooooooooooooooooooo . oooooo",
"oooooooooooooooooooooo ooooooo"
};
