/* XPM */
static char *Z2FtZV9vdmVy[] = {
/* columns rows colors chars-per-pixel */
"60 60 168 2 ",
"   c #010000",
".  c #010100",
"X  c #000001",
"o  c #010001",
"O  c #000101",
"+  c #010101",
"@  c #010200",
"#  c #010201",
"$  c #010002",
"%  c #010102",
"&  c #020102",
"*  c #010202",
"=  c #010302",
"-  c #010203",
";  c #010303",
":  c #020202",
">  c #020302",
",  c #020203",
"<  c #020303",
"1  c #020402",
"2  c #020403",
"3  c #020204",
"4  c #020304",
"5  c #030304",
"6  c #020404",
"7  c #030404",
"8  c #020504",
"9  c #030504",
"0  c #020405",
"q  c #030405",
"w  c #020505",
"e  c #030505",
"r  c #030604",
"t  c #030605",
"y  c #030406",
"u  c #030506",
"i  c #030606",
"p  c #030706",
"a  c #030607",
"s  c #030707",
"d  c #040506",
"f  c #040606",
"g  c #040706",
"h  c #040607",
"j  c #040707",
"k  c #040806",
"l  c #040807",
"z  c #040608",
"x  c #040708",
"c  c #050708",
"v  c #040808",
"b  c #050808",
"n  c #040908",
"m  c #050908",
"M  c #040809",
"N  c #050809",
"B  c #040909",
"V  c #050909",
"C  c #050A08",
"Z  c #050A09",
"A  c #05090A",
"S  c #050A0A",
"D  c #050A0B",
"F  c #050B0B",
"G  c #060A0A",
"H  c #060B0A",
"J  c #060B0B",
"K  c #060C0B",
"L  c #060B0C",
"P  c #060C0C",
"I  c #070C0C",
"U  c #070D0C",
"Y  c #060C0D",
"T  c #060D0D",
"R  c #070D0D",
"E  c #070E0D",
"W  c #070D0E",
"Q  c #070E0E",
"!  c #070E0F",
"~  c #070F0F",
"^  c #080E0E",
"/  c #080F0E",
"(  c #080F0F",
")  c #08100F",
"_  c #080F10",
"`  c #081010",
"'  c #091010",
"]  c #091110",
"[  c #081011",
"{  c #081111",
"}  c #091111",
"|  c #091211",
" . c #091112",
".. c #091212",
"X. c #091213",
"o. c #091313",
"O. c #0A1212",
"+. c #0A1312",
"@. c #0A1313",
"#. c #0A1413",
"$. c #0A1314",
"%. c #0A1414",
"&. c #0B1414",
"*. c #0B1514",
"=. c #0A1415",
"-. c #0A1515",
";. c #0B1515",
":. c #0B1615",
">. c #0B1516",
",. c #0B1616",
"<. c #0B1617",
"1. c #0B1717",
"2. c #0C1616",
"3. c #0C1716",
"4. c #0C1717",
"5. c #0C1817",
"6. c #0C1718",
"7. c #0C1818",
"8. c #0D1818",
"9. c #0D1918",
"0. c #0C1819",
"q. c #0C1919",
"w. c #0D1919",
"e. c #0D1A19",
"r. c #0D191A",
"t. c #0D1A1A",
"y. c #0D1A1B",
"u. c #0D1B1B",
"i. c #0E1A1A",
"p. c #0E1B1A",
"a. c #0E1B1B",
"s. c #0E1C1B",
"d. c #0E1B1C",
"f. c #0E1C1C",
"g. c #0F1C1C",
"h. c #0F1D1C",
"j. c #0E1C1D",
"k. c #0E1D1D",
"l. c #0F1D1D",
"z. c #0F1E1D",
"x. c #0F1D1E",
"c. c #0F1E1E",
"v. c #0F1E1F",
"b. c #101E1E",
"n. c #101F1E",
"m. c #101F1F",
"M. c #101F20",
"N. c #102020",
"B. c #112020",
"V. c #112120",
"C. c #112121",
"Z. c #112122",
"A. c #112222",
"S. c #122222",
"D. c #122322",
"F. c #122323",
"G. c #122324",
"H. c #122424",
"J. c #132424",
"K. c #132524",
"L. c #132525",
"P. c #132526",
"I. c #132626",
"U. c #142626",
"Y. c #142726",
"T. c #142727",
"R. c #F50000",
"E. c None",
/* pixels */
"E.E.E.E.E.E.E.E.E.E.E.E.E.E.E.E.E.E.E.E.E.E.E.E.E.E.E.E.E.E.E.E.E.E.E.E.E.E.E.E.E.E.E.E.E.E.E.E.E.E.E.E.E.E.E.E.E.E.E.E.",
"E.E.E.E.E.E.E.E.E.E.E.E.E.E.E.E.E.E.E.E.E.E.E.E.E.E.E.E.E.E.E.E.E.E.E.E.E.E.E.E.E.E.E.E.E.E.E.E.E.E.E.E.E.E.E.E.E.E.E.E.",
"E.E.E.E.E.E.E.E.E.E.E.E.E.E.E.E.E.E.E.E.E.E.E.E.E.E.E.E.E.E.E.E.E.E.E.E.E.E.E.E.E.E.E.E.E.E.E.E.E.E.E.E.E.E.E.E.E.E.E.E.",
"E.E.E.E.E.E.E.E.E.E.E.E.E.E.E.E.E.E.E.E.E.E.E.E.E.E.E.E.E.E.E.E.E.E.E.E.E.E.E.E.E.E.E.E.E.E.E.E.E.E.E.E.E.E.E.E.E.E.E.E.",
"E.E.E.E.E.E.E.E.E.E.E.E.E.E.E.E.E.E.E.E.E.E.E.E.E.E.E.E.E.E.E.E.E.E.E.E.E.E.E.E.E.E.E.E.E.E.E.E.E.E.E.E.E.E.E.E.E.E.E.E.",
"E.E.E.E.E.E.E.E.E.E.E.E.E.E.E.E.E.E.E.E.E.E.E.E.E.E.E.E.E.E.E.E.E.E.E.E.E.E.E.E.E.E.E.E.E.E.E.E.E.E.E.E.E.E.E.E.E.E.E.E.",
"E.E.E.E.E.E.E.E.E.E.E.E.E.E.E.E.E.E.E.E.E.E.E.E.E.E.E.E.E.E.E.E.E.E.E.E.E.E.E.E.E.E.E.E.E.E.E.E.E.E.E.E.E.E.E.E.E.E.E.E.",
"E.E.E.E.E.E.E.E.E.E.E.E.E.E.E.E.E.E.E.E.E.E.E.E.E.E.E.E.E.E.E.E.E.E.E.E.E.E.E.E.E.E.E.E.E.E.E.E.E.E.E.E.E.E.E.E.E.E.E.E.",
"E.E.E.E.E.E.E.E.E.E.E.E.E.E.E.E.E.E.E.E.E.E.E.E.E.E.E.E.E.E.E.E.E.E.E.E.E.E.E.E.E.E.E.E.E.E.E.E.E.E.E.E.E.E.E.E.E.E.E.E.",
"E.E.E.E.E.E.E.E.E.E.E.E.E.E.E.E.E.E.E.E.E.E.E.E.E.E.E.E.E.E.E.E.E.E.E.E.E.E.E.E.E.E.E.E.E.E.E.E.E.E.E.E.E.E.E.E.E.E.E.E.",
"E.E.E.E.E.E.E.E.E.E.E.E.E.E.E.E.E.E.E.E.E.E.E.E.E.E.E.E.E.E.E.E.E.E.E.E.E.E.E.E.E.E.E.E.E.E.E.E.E.E.E.E.E.E.E.E.E.E.E.E.",
"E.E.E.E.E.E.E.E.E.E.E.E.E.E.E.E.E.E.E.E.E.E.E.E.E.E.E.E.E.E.E.E.E.E.E.E.E.E.E.E.E.E.E.E.E.E.E.E.E.E.E.E.E.E.E.E.E.E.E.E.",
"E.E.E.E.E.E.E.E.E.E.E.E.E.E.E.E.E.E.E.E.E.E.E.E.E.E.E.E.E.E.E.E.E.E.E.E.E.E.E.E.E.E.E.E.E.E.E.E.E.E.E.E.E.E.E.E.E.E.E.E.",
"E.E.E.R.R.R.R.R.R.E.E.E.E.E.E.E.E.E.R.R.R.R.R.R.E.E.E.E.E.E.R.R.R.E.E.E.E.E.E.E.E.E.R.R.R.E.E.E.R.R.R.R.R.R.R.R.R.R.R.R.",
"E.E.E.R.R.R.R.R.R.E.E.E.E.E.E.E.E.E.R.R.R.R.R.R.E.E.E.E.E.E.R.R.R.E.E.E.E.E.E.E.E.E.R.R.R.E.E.E.R.R.R.R.R.R.R.R.R.R.R.R.",
"E.E.E.R.R.R.R.R.R.E.E.E.E.E.E.E.E.E.R.R.R.R.R.R.E.E.E.E.E.E.R.R.R.E.E.E.E.E.E.E.E.E.R.R.R.E.E.E.R.R.R.R.R.R.R.R.R.R.R.R.",
"R.R.R.E.E.E.E.E.E.E.E.E.E.E.E.R.R.R.E.E.E.E.E.E.R.R.R.E.E.E.R.R.R.R.R.R.E.E.E.R.R.R.R.R.R.E.E.E.R.R.R.E.E.E.E.E.E.E.E.E.",
"R.R.R.E.E.E.E.E.E.E.E.E.E.E.E.R.R.R.E.E.E.E.E.E.R.R.R.E.E.E.R.R.R.R.R.R.E.E.E.R.R.R.R.R.R.E.E.E.R.R.R.E.E.E.E.E.E.E.E.E.",
"R.R.R.E.E.E.E.E.E.E.E.E.E.E.E.R.R.R.E.E.E.E.E.E.R.R.R.E.E.E.R.R.R.R.R.R.E.E.E.R.R.R.R.R.R.E.E.E.R.R.R.E.E.E.E.E.E.E.E.E.",
"R.R.R.E.E.E.R.R.R.R.R.R.E.E.E.R.R.R.R.R.R.R.R.R.R.R.R.E.E.E.R.R.R.E.E.E.R.R.R.E.E.E.R.R.R.E.E.E.R.R.R.R.R.R.R.R.R.E.E.E.",
"R.R.R.E.E.E.R.R.R.R.R.R.E.E.E.R.R.R.R.R.R.R.R.R.R.R.R.E.E.E.R.R.R.E.E.E.R.R.R.E.E.E.R.R.R.E.E.E.R.R.R.R.R.R.R.R.R.E.E.E.",
"R.R.R.E.E.E.R.R.R.R.R.R.E.E.E.R.R.R.R.R.R.R.R.R.R.R.R.E.E.E.R.R.R.E.E.E.R.R.R.E.E.E.R.R.R.E.E.E.R.R.R.R.R.R.R.R.R.E.E.E.",
"R.R.R.E.E.E.E.E.E.R.R.R.E.E.E.R.R.R.E.E.E.E.E.E.R.R.R.E.E.E.R.R.R.E.E.E.E.E.E.E.E.E.R.R.R.E.E.E.R.R.R.E.E.E.E.E.E.E.E.E.",
"R.R.R.E.E.E.E.E.E.R.R.R.E.E.E.R.R.R.E.E.E.E.E.E.R.R.R.E.E.E.R.R.R.E.E.E.E.E.E.E.E.E.R.R.R.E.E.E.R.R.R.E.E.E.E.E.E.E.E.E.",
"R.R.R.E.E.E.E.E.E.R.R.R.E.E.E.R.R.R.E.E.E.E.E.E.R.R.R.E.E.E.R.R.R.E.E.E.E.E.E.E.E.E.R.R.R.E.E.E.R.R.R.E.E.E.E.E.E.E.E.E.",
"E.E.E.R.R.R.R.R.R.E.E.E.E.E.E.R.R.R.E.E.E.E.E.E.R.R.R.E.E.E.R.R.R.E.E.E.E.E.E.E.E.E.R.R.R.E.E.E.R.R.R.R.R.R.R.R.R.R.R.R.",
"E.E.E.R.R.R.R.R.R.E.E.E.E.E.E.R.R.R.E.E.E.E.E.E.R.R.R.E.E.E.R.R.R.E.E.E.E.E.E.E.E.E.R.R.R.E.E.E.R.R.R.R.R.R.R.R.R.R.R.R.",
"E.E.E.R.R.R.R.R.R.E.E.E.E.E.E.R.R.R.E.E.E.E.E.E.R.R.R.E.E.E.R.R.R.E.E.E.E.E.E.E.E.E.R.R.R.E.E.E.R.R.R.R.R.R.R.R.R.R.R.R.",
"E.E.E.E.E.E.E.E.E.E.E.E.E.E.E.E.E.E.E.E.E.E.E.E.E.E.E.E.E.E.E.E.E.E.E.E.E.E.E.E.E.E.E.E.E.E.E.E.E.E.E.E.E.E.E.E.E.E.E.E.",
"E.E.E.E.E.E.E.E.E.E.E.E.E.E.E.E.E.E.E.E.E.E.E.E.E.E.E.E.E.E.E.E.E.E.E.E.E.E.E.E.E.E.E.E.E.E.E.E.E.E.E.E.E.E.E.E.E.E.E.E.",
"E.E.E.E.E.E.E.E.E.E.E.E.E.E.E.E.E.E.E.E.E.E.E.E.E.E.E.E.E.E.E.E.E.E.E.E.E.E.E.E.E.E.E.E.E.E.E.E.E.E.E.E.E.E.E.E.E.E.E.E.",
"E.E.E.i ; % % i i E.E.E.E.E.E.i i i E.E.E.E.E.E.E.E.E.i i i E.E.E.6.&.] $.6.0.n.n.V.F.P.P.E.E.E.0.&.&.&.s.g.g.g.n.E.E.E.",
"E.E.E.; % % % ; i E.E.E.E.E.E.g g ; E.E.E.E.E.E.E.E.E.k ; r E.E.E.#.] ^ ] &.0.0.n.n.C.C.P.E.E.E.#.] W ` &.u.g.g.v.E.E.E.",
"E.E.E.g , % ; g g E.E.E.E.E.E.g ; % E.E.E.E.E.E.E.E.E.; ; % E.E.E.#.W L ^ ] ] 0.5.n.n.C.C.E.E.E.#.W W W #.&.0.s.v.E.E.E.",
"g g g E.E.E.E.E.E.i ; ; E.E.E.i % ; E.E.E.E.E.E.E.E.E.% ; % E.E.E.W H H E.E.E.E.E.E.E.E.E.E.E.E.W K H E.E.E.E.E.E.; ; % ",
"3 % i E.E.E.E.E.E.i % ; E.E.E.% % ; E.E.E.E.E.E.E.E.E.; % ; E.E.E.L i i E.E.E.E.E.E.E.E.E.E.E.E.W i i E.E.E.E.E.E.; % ; ",
"% % % E.E.E.E.E.E.1 ; % E.E.E.; ; % E.E.E.E.E.E.E.E.E.i ; i E.E.E.g g % E.E.E.E.E.E.E.E.E.E.E.E.p i ; E.E.E.E.E.E.; ; % ",
"% % % E.E.E.E.E.E.; ; % E.E.E.E.E.E.; % ; E.E.E.g k g E.E.E.E.E.E.g % % % % 3 3 H H E.E.E.E.E.E.i % % ; % % i H K E.E.E.",
", % % E.E.E.E.E.E.k i % E.E.E.E.E.E.; ; ; E.E.E.% i i E.E.E.E.E.E.g i % % 1 g H H W E.E.E.E.E.E.i i % % ; i s H ) E.E.E.",
"q q q E.E.E.E.E.E.k g ; E.E.E.E.E.E.% ; 1 E.E.E.% % ; E.E.E.E.E.E.W g i % 1 k G _ _ E.E.E.E.E.E.W k i ; i s W ` ] E.E.E.",
"g i g E.E.E.E.E.E.k k p E.E.E.E.E.E.% i g E.E.E.% % ; E.E.E.E.E.E.W H H E.E.E.E.E.E.E.E.E.E.E.E.W W s E.E.E.` ` 4.E.E.E.",
"z z z E.E.E.E.E.E.H k i E.E.E.E.E.E.i 1 i E.E.E.% % i E.E.E.E.E.E.] W K E.E.E.E.E.E.E.E.E.E.E.E.] W F E.E.E.] &.5.E.E.E.",
"z z H E.E.E.E.E.E.H k H E.E.E.E.E.E.g g i E.E.E.; ; i E.E.E.E.E.E.&.] W E.E.E.E.E.E.E.E.E.E.E.E.1.#.` E.E.E.1.0.g.E.E.E.",
"E.E.E.i i i ; % % E.E.E.E.E.E.E.E.E.E.E.E.% % % E.E.E.E.E.E.E.E.E.4.&.] &.5.u.g.n.C.C.P.P.E.E.E.q.&.] E.E.E.E.E.E.% % % ",
"E.E.E.g % ; % % % E.E.E.E.E.E.E.E.E.E.E.E.% ; % E.E.E.E.E.E.E.E.E.0.4.4.&.0.g.g.C.F.K.P.P.E.E.E.g.q.&.E.E.E.E.E.E.% % ; ",
"E.E.E.g i i ; % ; E.E.E.E.E.E.E.E.E.E.E.E.1 % ; E.E.E.E.E.E.E.E.E.u.0.4.s.g.C.C.C.K.P.T.T.E.E.E.g.g.q.E.E.E.E.E.E.% % ; ",
"E.E.E.E.E.E.E.E.E.E.E.E.E.E.E.E.E.E.E.E.E.E.E.E.E.E.E.E.E.E.E.E.E.E.E.E.E.E.E.E.E.E.E.E.E.E.E.E.E.E.E.E.E.E.E.E.E.E.E.E.",
"E.E.E.E.E.E.E.E.E.E.E.E.E.E.E.E.E.E.E.E.E.E.E.E.E.E.E.E.E.E.E.E.E.E.E.E.E.E.E.E.E.E.E.E.E.E.E.E.E.E.E.E.E.E.E.E.E.E.E.E.",
"E.E.E.E.E.E.E.E.E.E.E.E.E.E.E.E.E.E.E.E.E.E.E.E.E.E.E.E.E.E.E.E.E.E.E.E.E.E.E.E.E.E.E.E.E.E.E.E.E.E.E.E.E.E.E.E.E.E.E.E.",
"E.E.E.E.E.E.E.E.E.E.E.E.E.E.E.E.E.E.E.E.E.E.E.E.E.E.E.E.E.E.E.E.E.E.E.E.E.E.E.E.E.E.E.E.E.E.E.E.E.E.E.E.E.E.E.E.E.E.E.E.",
"E.E.E.E.E.E.E.E.E.E.E.E.E.E.E.E.E.E.E.E.E.E.E.E.E.E.E.E.E.E.E.E.E.E.E.E.E.E.E.E.E.E.E.E.E.E.E.E.E.E.E.E.E.E.E.E.E.E.E.E.",
"E.E.E.E.E.E.E.E.E.E.E.E.E.E.E.E.E.E.E.E.E.E.E.E.E.E.E.E.E.E.E.E.E.E.E.E.E.E.E.E.E.E.E.E.E.E.E.E.E.E.E.E.E.E.E.E.E.E.E.E.",
"E.E.E.E.E.E.E.E.E.E.E.E.E.E.E.E.E.E.E.E.E.E.E.E.E.E.E.E.E.E.E.E.E.E.E.E.E.E.E.E.E.E.E.E.E.E.E.E.E.E.E.E.E.E.E.E.E.E.E.E.",
"E.E.E.E.E.E.E.E.E.E.E.E.E.E.E.E.E.E.E.E.E.E.E.E.E.E.E.E.E.E.E.E.E.E.E.E.E.E.E.E.E.E.E.E.E.E.E.E.E.E.E.E.E.E.E.E.E.E.E.E.",
"E.E.E.E.E.E.E.E.E.E.E.E.E.E.E.E.E.E.E.E.E.E.E.E.E.E.E.E.E.E.E.E.E.E.E.E.E.E.E.E.E.E.E.E.E.E.E.E.E.E.E.E.E.E.E.E.E.E.E.E.",
"E.E.E.E.E.E.E.E.E.E.E.E.E.E.E.E.E.E.E.E.E.E.E.E.E.E.E.E.E.E.E.E.E.E.E.E.E.E.E.E.E.E.E.E.E.E.E.E.E.E.E.E.E.E.E.E.E.E.E.E.",
"E.E.E.E.E.E.E.E.E.E.E.E.E.E.E.E.E.E.E.E.E.E.E.E.E.E.E.E.E.E.E.E.E.E.E.E.E.E.E.E.E.E.E.E.E.E.E.E.E.E.E.E.E.E.E.E.E.E.E.E.",
"E.E.E.E.E.E.E.E.E.E.E.E.E.E.E.E.E.E.E.E.E.E.E.E.E.E.E.E.E.E.E.E.E.E.E.E.E.E.E.E.E.E.E.E.E.E.E.E.E.E.E.E.E.E.E.E.E.E.E.E.",
"E.E.E.E.E.E.E.E.E.E.E.E.E.E.E.E.E.E.E.E.E.E.E.E.E.E.E.E.E.E.E.E.E.E.E.E.E.E.E.E.E.E.E.E.E.E.E.E.E.E.E.E.E.E.E.E.E.E.E.E.",
"E.E.E.E.E.E.E.E.E.E.E.E.E.E.E.E.E.E.E.E.E.E.E.E.E.E.E.E.E.E.E.E.E.E.E.E.E.E.E.E.E.E.E.E.E.E.E.E.E.E.E.E.E.E.E.E.E.E.E.E."
};
