/* XPM */
static char *result[] = {
/* columns rows colors chars-per-pixel */
"60 60 162 2 ",
"   c #030303",
".  c #090704",
"X  c #0A0906",
"o  c #090709",
"O  c #070809",
"+  c #0C0B0B",
"@  c #130B03",
"#  c #100F0D",
"$  c #1A1107",
"%  c #13110F",
"&  c #050C14",
"*  c #110E11",
"=  c #0F141B",
"-  c #131313",
";  c #191614",
":  c #1C1915",
">  c #1C1B1C",
",  c #19181D",
"<  c #211E1B",
"1  c #2D1D10",
"2  c #24211E",
"3  c #0A1522",
"4  c #0E1E31",
"5  c #101E32",
"6  c #231C23",
"7  c #192028",
"8  c #0F2138",
"9  c #122235",
"0  c #16263B",
"q  c #1C2838",
"w  c #252525",
"e  c #2D2823",
"r  c #2C2C2C",
"t  c #2B2626",
"y  c #312C25",
"u  c #36312A",
"i  c #3B342B",
"p  c #2F2730",
"a  c #362D36",
"s  c #333333",
"d  c #3F3830",
"f  c #3B3B3B",
"g  c #3E3731",
"h  c #5E3E19",
"j  c #4A3825",
"k  c #4B3622",
"l  c #433C34",
"z  c #463E3C",
"x  c #784B1B",
"c  c #484137",
"v  c #4E453C",
"b  c #51473C",
"n  c #644520",
"m  c #7B5426",
"M  c #142D4B",
"N  c #1C2E47",
"B  c #18314E",
"V  c #122E50",
"C  c #163153",
"Z  c #1B385C",
"A  c #293B53",
"S  c #163A65",
"D  c #4A3D4A",
"F  c #463A46",
"G  c #1C4375",
"H  c #1D4678",
"J  c #1F487A",
"K  c #26456C",
"L  c #29466C",
"P  c #224A7C",
"I  c #234875",
"U  c #2D517D",
"Y  c #365171",
"T  c #434343",
"R  c #4B4B4B",
"E  c #564E42",
"W  c #595147",
"Q  c #554756",
"!  c #535353",
"~  c #5D5D5D",
"^  c #64594D",
"/  c #685E52",
"(  c #756A5B",
")  c #776A5C",
"_  c #675768",
"`  c gray39",
"'  c gray42",
"]  c #7A667A",
"[  c #747474",
"{  c #7A7A7A",
"}  c #925B1E",
"|  c #A56820",
" . c #B36E20",
".. c #A9702F",
"X. c #B47226",
"o. c #CD7E25",
"O. c #C37F33",
"+. c #837665",
"@. c #8A7B6B",
"#. c #897670",
"$. c #EB8B1F",
"%. c #D98422",
"&. c #D78734",
"*. c #E58622",
"=. c #E78C25",
"-. c #EB922B",
";. c #9A8A79",
":. c #A3937F",
">. c #D38C42",
",. c #806981",
"<. c #947596",
"1. c #808080",
"2. c gray55",
"3. c #9C819D",
"4. c #9F9F9F",
"5. c gray58",
"6. c #AB9986",
"7. c #AA9A86",
"8. c #A686A8",
"9. c #B18AB3",
"0. c #B293B4",
"q. c #BB91BD",
"w. c #A4A4A4",
"e. c #ABABAB",
"r. c #B6B6B6",
"t. c #BBBBBB",
"y. c #C5B39B",
"u. c #CEB89F",
"i. c #CBB69E",
"p. c #CDB9A0",
"a. c #D5C0A7",
"s. c #DAC5AB",
"d. c #E2CBAF",
"f. c #E5CDB2",
"g. c #EDD3B4",
"h. c #EFD7BA",
"j. c #F4DBBD",
"k. c #F0D7BB",
"l. c #C59AC8",
"z. c #CFA1D0",
"x. c #D5A9D7",
"c. c #DCADDF",
"v. c #DDADE0",
"b. c #E9B7EC",
"n. c #EBB8EE",
"m. c #E5B3E8",
"M. c #EEBBF1",
"N. c #F3BEF6",
"B. c #C5C5C5",
"V. c #CBCBCB",
"C. c #D2D2D2",
"Z. c #DBDBDB",
"A. c #F7DEC0",
"S. c #F8DFC0",
"D. c #FFE5C6",
"F. c #F7C1FA",
"G. c #FBC4FE",
"H. c #E4E4E4",
"J. c #EBEBEB",
"K. c #F3F3F3",
"L. c #FFFFFF",
"P. c None",
/* pixels */
"P.P.P.P.P.P.P.P.P.P.P.P.P.P.P.P.P.P.P.P.P.P.P.P.P.P.P.P.P.P.P.P.P.P.P.P.P.P.P.P.P.P.P.P.P.P.P.P.P.P.P.P.P.P.P.P.P.P.P.P.",
"P.P.P.P.P.P.P.P.P.P.P.P.P.P.P.P.P.P.P.P.P.P.P.P.P.P.P.P.P.P.P.P.P.P.P.P.P.P.P.P.P.P.P.P.P.P.P.P.P.P.P.P.P.P.P.P.P.P.P.P.",
"P.P.P.P.P.P.P.P.P.P.P.P.P.P.P.P.P.P.P.P.P.P.P.P.P.P.P.P.P.P.P.P.P.P.P.P.P.P.P.P.P.P.P.P.P.P.P.P.P.P.P.P.P.P.P.P.P.P.P.P.",
"P.P.P.P.P.P.P.P.P.P.P.P.P.P.P.P.P.P.P.P.P.P.P.P.P.P.P.P.P.P.P.P.P.P.P.P.P.P.P.P.P.P.P.P.P.P.P.P.P.P.P.P.P.P.P.P.P.P.P.P.",
"P.P.P.P.P.P.P.P.P.P.P.P.P.P.P.P.P.P.P.P.P.P.P.P.P.P.P.P.P.P.P.P.P.P.P.P.P.P.P.P.P.P.P.P.P.P.P.P.P.P.P.P.P.P.P.P.P.P.P.P.",
"P.P.P.P.P.P.P.P.P.P.P.P.P.P.P.P.P.P.P.P.P.P.P.P.P.P.P.P.P.P.P.P.P.P.P.P.P.P.P.P.P.P.P.P.P.P.P.P.P.P.P.P.P.P.P.P.P.P.P.P.",
"P.P.P.P.P.P.P.P.P.P.P.P.P.P.P.P.P.P.P.P.P.P.P.P.P.P.P.P.P.P.P.P.P.P.P.P.P.P.P.P.P.P.P.P.P.P.P.P.P.P.P.P.P.P.P.P.P.P.P.P.",
"P.P.P.P.P.P.P.P.P.P.P.P.P.P.P.P.P.P.P.P.P.P.P.P.P.P.P.P.P.P.P.P.P.P.P.P.P.P.P.P.P.P.P.P.P.P.P.P.P.P.P.P.P.P.P.P.P.P.P.P.",
"P.P.P.P.P.P.P.P.P.P.P.P.P.P.P.P.P.P.P.P.P.P.P.P.P.P.P.P.P.P.P.P.P.P.P.P.P.P.P.P.P.P.P.P.P.P.P.P.P.P.P.P.P.P.P.P.P.P.P.P.",
"P.P.P.P.P.P.P.P.P.P.P.P.P.P.P.P.P.P.P.P.P.P.P.P.P.P.P.P.P.P.P.P.P.P.P.P.P.P.P.P.P.P.P.P.P.P.P.P.P.P.P.P.P.P.P.P.P.P.P.P.",
"P.P.P.P.P.P.P.P.P.P.P.P.P.P.P.P.P.P.P.P.P.P.P.P.P.P.P.P.P.P.P.P.P.P.P.P.P.P.P.P.P.P.P.P.P.P.P.P.P.P.P.P.P.P.P.P.P.P.P.P.",
"P.P.P.P.P.P.P.P.P.P.P.P.P.P.P.P.P.P.P.P.P.P.P.P.P.P.P.P.P.P.P.P.P.P.P.P.P.P.P.P.P.P.P.P.P.P.P.P.P.P.P.P.P.P.P.P.P.P.P.P.",
"P.P.P.P.P.P.P.P.P.P.P.P.P.P.P.P.P.P.P.P.P.P.P.P.P.P.P.P.P.P.P.P.P.P.P.P.P.P.P.P.P.P.P.P.P.P.P.P.P.P.P.P.P.P.P.P.P.P.P.P.",
"P.P.P.P.P.P.P.P.P.P.P.P.P.P.P.P.P.P.P.P.P.P.P.P.P.P.P.P.P.P.P.P.P.P.P.P.P.P.P.P.P.P.P.P.P.P.P.P.P.P.P.P.P.P.P.P.P.P.P.P.",
"P.P.P.P.P.P.P.P.P.P.P.P.P.P.P.P.P.P.P.P.P.P.P.P.P.P.P.P.P.P.P.P.P.P.P.P.P.P.P.P.P.P.P.P.P.P.P.P.P.P.P.P.P.P.P.P.P.P.P.P.",
"P.P.P.P.P.P.P.P.P.P.P.P.P.P.P.P.P.P.P.P.P.P.P.P.P.P.P.P.P.P.P.P.P.P.P.P.P.P.P.P.P.P.P.P.P.P.P.P.P.P.P.P.P.P.P.P.P.P.P.P.",
"P.P.P.P.P.P.P.P.P.P.P.P.P.P.P.P.P.P.P.P.P.P.P.P.P.P.P.P.P.P.P.P.P.P.P.P.P.P.P.P.P.P.P.P.P.P.P.P.P.P.P.P.P.P.P.P.P.P.P.P.",
"P.P.P.P.P.P.P.P.P.P.P.P.P.P.P.P.P.P.P.P.P.P.P.-   X . X @ @ $ 1 < = P.P.P.P.P.P.P.P.P.P.P.P.P.P.P.P.P.P.P.P.P.P.P.P.P.P.",
"P.P.P.P.P.P.P.P.P.P.P.P.P.P.P.P.P.P.P.P.P.P.P.+ . | %.o.-.=.$.$.$.x + T P.P.P.P.P.P.P.P.P.P.P.P.P.P.P.P.P.P.P.P.P.P.P.P.",
"P.P.P.P.P.P.P.P.P.P.P.P.P.P.P.P.P.P.P.P.P.P.P.  . k h } n x  .%.$.=.&.+ - P.P.P.P.P.P.P.P.P.P.P.P.P.P.P.P.P.P.P.P.P.P.P.",
"P.P.P.P.P.P.P.P.P.P.P.P.P.P.P.P.P.P.P.P.P.P.P.  - > e u ; X X 2 j &.$.&.+ P.P.P.P.P.P.P.P.P.P.P.P.P.P.P.P.P.P.P.P.P.P.P.",
"P.P.P.P.P.P.P.P.P.P.P.P.P.P.P.P.P.P.P.P.P.P.+ # 7.D.D.f.j.D.d.v # % *.$.m   P.P.P.P.P.P.P.P.P.P.P.P.P.P.P.P.P.P.P.P.P.P.",
"P.P.P.P.P.P.P.P.P.P.P.P.P.P.P.P.P.P.P.P.P.P.: l S.D.D.D.D.D.D.j.@.2 k =.=.X e P.P.P.P.P.P.P.P.P.P.P.P.P.P.P.P.P.P.P.P.P.",
"P.P.P.P.P.P.P.P.P.P.P.P.P.P.P.P.P.P.P.P.P.X < 7.D.D.j.D.D.D.D.D.j.) i >.$.j . P.P.P.P.P.P.P.P.P.P.P.P.P.P.P.P.P.P.P.P.P.",
"P.P.P.P.P.P.P.P.P.P.P.P.P.P.P.P.P.P.P.P.  ; f.D.D.u X y.k.e   f.D.j.E v X...o P.P.P.P.P.P.P.P.P.P.P.P.P.P.P.P.P.P.P.P.P.",
"P.P.P.P.P.P.P.P.P.P.P.P.P.P.P.P.P.P.P.    7.j.D.D.u.c k.D.s.2 k.D.D.;.o @ $   P.P.P.P.P.P.P.P.P.P.P.P.P.P.P.P.P.P.P.P.P.",
"P.P.P.P.P.P.P.P.P.P.P.P.P.P.P.P.P.P.P.  + h.D.D.D.D.D.D.D.D.j.D.D.D.6.( D.)   P.P.P.P.P.P.P.P.P.P.P.P.P.P.P.P.P.P.P.P.P.",
"P.P.P.P.P.P.P.P.P.P.P.P.P.P.P.P.P.P.P.  l g.D.D.D.D.D.D.D.D.D.D.D.D.D.D.D.(   P.P.P.P.P.P.P.P.P.P.P.P.P.P.P.P.P.P.P.P.P.",
"P.P.P.P.P.P.P.P.P.P.P.P.P.P.P.P.P.P.P.  2 s.D.D.D.D.D.D.D.D.D.D.D.D.D.D.g.O   # P.P.P.P.P.P.P.P.P.P.P.P.P.P.P.P.P.P.P.P.",
"P.P.P.P.P.P.P.P.P.P.P.P.P.P.P.P.P.P.P.  + :.S.D.D.D.D.D.D.D.D.D.D.D.A.f.#.  > O     P.P.P.P.P.P.P.P.P.P.P.P.P.P.P.P.P.P.",
"P.P.P.P.P.P.P.P.P.P.P.P.P.P.P.P.P.P.P.P.X 2 u.D.D.D.D.D.D.D.S.s.i.W T c +   8.F.F     P.P.P.P.P.P.P.P.P.P.P.P.P.P.P.P.P.",
"P.P.P.P.P.P.P.P.P.P.P.P.P.P.P.P.P.P.P.P.! X e a.D.D.D.D.D.j.D.> + O ;     > _ F.G.0.+ ; P.P.P.P.P.P.P.P.P.P.P.P.P.P.P.P.",
"P.P.P.P.P.P.P.P.P.P.P.P.P.P.P.P.P.P.P.P.P.>   + u l / +.l   + +       - + ~ ; N.G.G.c.p P.P.P.P.P.P.P.P.P.P.P.P.P.P.P.P.",
"P.P.P.P.P.P.P.P.P.P.P.P.P.P.P.P.P.P.P.P.P.7 - w > * # + + s [   ;   , > 5.B.> x.G.G.N.> P.P.P.P.P.P.P.P.P.P.P.P.P.P.P.P.",
"P.P.P.P.P.P.P.P.P.P.P.P.P.P.P.P.P.P.P.P.t.  + s r.H.V.e.B.H.w O 0.+ - ~ J.L.> Q G.G.F.+ P.P.P.P.P.P.P.P.P.P.P.P.P.P.P.P.",
"P.P.P.P.P.P.P.P.P.P.P.P.P.P.P.P.P.P.P.P.+   2 { L.L.L.L.L.C.+ 6 l.O t t.L.L.w p F.G.F.# P.P.P.P.P.P.P.P.P.P.P.P.P.P.P.P.",
"P.P.P.P.P.P.P.P.P.P.P.P.P.P.P.P.P.P.P.;   ; Z.K.L.L.L.L.L.Z.+ D 9.O f K.L.L., 6 N.G.M.+ P.P.P.P.P.P.P.P.P.P.P.P.P.P.P.P.",
"P.P.P.P.P.P.P.P.P.P.P.P.P.P.P.P.P.P.r     4.L.L.L.L.L.L.L.J.+ _ 8.+ ' K.L.K.> 6 n.G.F.* P.P.P.P.P.P.P.P.P.P.P.P.P.P.P.P.",
"P.P.P.P.P.P.P.P.P.P.P.P.P.P.P.P.P.r +   > C.L.L.L.L.L.L.L.J.  ] q.+ + O   + * - n.G.F.* P.P.P.P.P.P.P.P.P.P.P.P.P.P.P.P.",
"P.P.P.P.P.P.P.P.P.P.P.P.P.P.P.P.> % >   [ K.L.L.L.L.L.L.L.Z.  ] z.  ^ y.p.* +   v.G.N.+ > P.P.P.P.P.P.P.P.P.P.P.P.P.P.P.",
"P.P.P.P.P.P.P.P.P.P.P.P.P.P.P.~   E     { J.L.L.L.L.L.L.L.t.O Q <.  ( D.D.p.:.; v.G.b.+ ` P.P.P.P.P.P.P.P.P.P.P.P.P.P.P.",
"P.P.P.P.P.P.P.P.P.P.P.P.P.P.P.;   6.    [ t.K.L.L.L.L.L.L.K.  a q.  t h.D.D.+.< b.G.<.+ P.P.P.P.P.P.P.P.P.P.P.P.P.P.P.P.",
"P.P.P.P.P.P.P.P.P.P.P.P.P.P.P.    d.    ~ { e.H.L.L.L.L.L.L.r - b.a   X w 2 + > F.]   s P.P.P.P.P.P.P.P.P.P.P.P.P.P.P.P.",
"P.P.P.P.P.P.P.P.P.P.P.P.P.P.P.#   ^ 2   + ` ' 2.2.{ [ { w.t.e.* D 3.f +   +   ] 6 + ` P.P.P.P.P.P.P.P.P.P.P.P.P.P.P.P.P.",
"P.P.P.P.P.P.P.P.P.P.P.P.P.P.P.P.% O -   + ; 7 > + > t w > w -           O & * ; o ! P.P.P.P.P.P.P.P.P.P.P.P.P.P.P.P.P.P.",
"P.P.P.P.P.P.P.P.P.P.P.P.P.P.P.P.P.P.r - - X X - > - -     O O # t s s r c >   r P.P.P.P.P.P.P.P.P.P.P.P.P.P.P.P.P.P.P.P.",
"P.P.P.P.P.P.P.P.P.P.P.P.P.P.P.P.P.P.P.P.r     s r.r.w.R > r T [ B.Z.J.J.Z.r   P.P.P.P.P.P.P.P.P.P.P.P.P.P.P.P.P.P.P.P.P.",
"P.P.P.P.P.P.P.P.P.P.P.P.P.P.P.P.P.P.P.P.>   - - H.L.K.s > * - 2.L.L.L.L.K.r   R P.P.P.P.P.P.P.P.P.P.P.P.P.P.P.P.P.P.P.P.",
"P.P.P.P.P.P.P.P.P.P.P.P.P.P.P.P.P.P.P.    O     O f `   - + *                 R P.P.P.P.P.P.P.P.P.P.P.P.P.P.P.P.P.P.P.P.",
"P.P.P.P.P.P.P.P.P.P.P.P.P.P.P.P.P.P.!   & C K q   9 3               B K L 7   s P.P.P.P.P.P.P.P.P.P.P.P.P.P.P.P.P.P.P.P.",
"P.P.P.P.P.P.P.P.P.P.P.P.P.P.P.P.P.P.-   4 G H G Z Y U 8     0 H G V S G H 4   w P.P.P.P.P.P.P.P.P.P.P.P.P.P.P.P.P.P.P.P.",
"P.P.P.P.P.P.P.P.P.P.P.P.P.P.P.P.P.P.+   4 G G H H P J 0   * 0 H H G H J J M   P.P.P.P.P.P.P.P.P.P.P.P.P.P.P.P.P.P.P.P.P.",
"P.P.P.P.P.P.P.P.P.P.P.P.P.P.P.P.P.P.P.    = N Z C M A q   + , K I H H H U C O P.P.P.P.P.P.P.P.P.P.P.P.P.P.P.P.P.P.P.P.P.",
"P.P.P.P.P.P.P.P.P.P.P.P.P.P.P.P.P.P.P.P.w + + + +   +       O > % + - , w w r P.P.P.P.P.P.P.P.P.P.P.P.P.P.P.P.P.P.P.P.P.",
"P.P.P.P.P.P.P.P.P.P.P.P.P.P.P.P.P.P.P.P.P.P.P.P.P.P.P.P.P.P.P.P.P.P.P.P.P.P.P.P.P.P.P.P.P.P.P.P.P.P.P.P.P.P.P.P.P.P.P.P.",
"P.P.P.P.P.P.P.P.P.P.P.P.P.P.P.P.P.P.P.P.P.P.P.P.P.P.P.P.P.P.P.P.P.P.P.P.P.P.P.P.P.P.P.P.P.P.P.P.P.P.P.P.P.P.P.P.P.P.P.P.",
"P.P.P.P.P.P.P.P.P.P.P.P.P.P.P.P.P.P.P.P.P.P.P.P.P.P.P.P.P.P.P.P.P.P.P.P.P.P.P.P.P.P.P.P.P.P.P.P.P.P.P.P.P.P.P.P.P.P.P.P.",
"P.P.P.P.P.P.P.P.P.P.P.P.P.P.P.P.P.P.P.P.P.P.P.P.P.P.P.P.P.P.P.P.P.P.P.P.P.P.P.P.P.P.P.P.P.P.P.P.P.P.P.P.P.P.P.P.P.P.P.P.",
"P.P.P.P.P.P.P.P.P.P.P.P.P.P.P.P.P.P.P.P.P.P.P.P.P.P.P.P.P.P.P.P.P.P.P.P.P.P.P.P.P.P.P.P.P.P.P.P.P.P.P.P.P.P.P.P.P.P.P.P.",
"P.P.P.P.P.P.P.P.P.P.P.P.P.P.P.P.P.P.P.P.P.P.P.P.P.P.P.P.P.P.P.P.P.P.P.P.P.P.P.P.P.P.P.P.P.P.P.P.P.P.P.P.P.P.P.P.P.P.P.P."
};
