/* XPM */
static char *result[] = {
/* columns rows colors chars-per-pixel */
"30 30 4 1 ",
"  c black",
". c #0011FF",
"X c white",
"o c None",
/* pixels */
"ooooooooooooo   oooooooooooooo",
"ooooooooooo  XXX  oooooooooooo",
"ooooooooooo XXXXX oooooooooooo",
"oooooooooo X.X X.X ooooooooooo",
"oooooooooo XXX XXX ooooooooooo",
"oooooooooo X X X X ooooooooooo",
"ooooooooooo X   X oooooooooooo",
"ooooooooooo  XXX  oooooooooooo",
"ooooooooooooo   oooooooooooooo",
"oooooooooooooo ooooooooooooooo",
"oooooooooooooo ooooooooooooooo",
"oooooooooooooo ooooooooooooooo",
"ooooooooooooo   oooooooooooooo",
"oooooooooooo o o ooooooooooooo",
"oooooooooo  oo oo oooooooooooo",
"ooooooooo oooo ooo ooooooooooo",
"oooooooo ooooo oooo oooooooooo",
"ooooooo oooooo ooooo ooooooooo",
"oooooooooooooo ooooooooooooooo",
"oooooooooooooo ooooooooooooooo",
"oooooooooooooo ooooooooooooooo",
"oooooooooooooo ooooooooooooooo",
"oooooooooooooo ooooooooooooooo",
"ooooooooooooo o oooooooooooooo",
"ooooooooooooo o oooooooooooooo",
"oooooooooooo ooo ooooooooooooo",
"oooooooooooo ooo ooooooooooooo",
"ooooooooooo ooooo oooooooooooo",
"ooooooooooo ooooo oooooooooooo",
"oooooooooo ooooooo ooooooooooo"
};
