/* XPM */
static char *result[] = {
/* columns rows colors chars-per-pixel */
"60 60 10 1 ",
"  c #180F05",
". c #221607",
"X c #301F0A",
"o c #263B0F",
"O c #452C0E",
"+ c #365415",
"@ c #4D781E",
"# c #AB1111",
"$ c #72C90E",
"% c None",
/* pixels */
"%%%%%%%%%%%%%%%%%%%%%%ooOooOooooo%%%%%%%%%%%%%%%%%%%%%%%%%%%",
"%%%%%%%%%%%%%%%%%%oooo++++++++O++ooo%%%%%%%%%%%%%%%%%%%%%%%%",
"%%%%%%%%%%%%%%%ooo++++$$@@$@O##@O+++oooo%%%%%%%%%%%%%%%%%%%%",
"%%%%%%%%%%%%%oo+++@@@@@@@$$@@##@@@$@++++ooooooo%%%%%%%%%%%%%",
"%%%%%%%%%oooo++@$@$@@$$$$@@@@@@@@@@@@@$$+++++++o%%%%%%%%%%%%",
"%%%%%%%%o++++@@@@@@@@$@@@@O@@$$@@O@@@@@@$@@@$@@+oo%%%%%%%%%%",
"%%%%%%%o+@@@@$@@$@@$@$@@@@@@@@@@$@@@$@@@@@$@@@@@+o%%%%%%%%%%",
"%%%%%%o+@$@$@@$@@@$@$$O$@@@$$O@$@@$##@@@$@##@@@@@+o%%%%%%%%%",
"%%%%%%o+@@@@@@$@$@@@@@O@@@$$@@##@@$##@@@$@##@@@@@+o%%%%%%%%%",
"%%%%oo+@@@@$@$@@@$@$@@##@@@@@@##@$@@@$@@@@@@@@@@@+o%%%%%%%%%",
"%%%o++@@$@$$$@$$@@@@@@##@@@@$@@@@@@@$@@$@@@@@O@@$+o%%%%%%%%%",
"%%o+@$@@@@@@@@@@@##@@@@@@@O@@$@@$@@@@@$@@$@@$$O@@@+o%%%%%%%%",
"%o+$@@@$@@$@@$@@@##@@@$@@@$@@$$$@@@@@$@@$@$$$$$@@@@+o%%%%%%%",
"%o+@@@@@@@@$$$@@@$@$$@@$$$@$@$$@@$@@O@$@@@@@@@@$@$@$+o%%%%%%",
"%o+@##@@$O$$$@@@@@$@@$$$$$@@@$O@@@@O@@@@@@$O@@$##@$$+o%%%%%%",
"%o+@##@@@@$@$$@@O@@@@@$@@$@@@@@@@$$@$@@@@@$$@@@##@@@+o%%%%%%",
"%o+@@@@@$@$O$@@@@@@@@@@@$@@@@@$@@$$@@@@$@@@$$@@@@$@$+o%%%%%%",
"%o+@$@@$@@@@##@$@$$@@@O@$$@O@@OOO@$@@O$@$$@$@$@@@@@##o%%%%%%",
"%o+@$@@@@@$@##@$@$@@O@@@@@$@$@@@@$@@@@$@##O@@@@@$@@##o%%%%%%",
"%o+$@@@@$$@$@@$$@@@$@@@@@@@@@@@##@@@@@@@##$$@$@@@@$@+o%%%%%%",
"%o+$@$@@@@@@@@@@@$@$@##O@@@O$@@##@@@$@@@@@@@@$$$@$@@+o%%%%%%",
"%o+@@@$@$@$@@@O$@$@@@##@$$##@@@@@@##@O@@@@$@O@@$$@$+o%%%%%%%",
"%o+@@@@@@$@$@$@@@@@@@@@@@@##@O@O@@##+@$@@$@$@$@@@@+o%%%%%%%%",
"%o+$@@@O@O##@@O@@@$@@$@@@@@@@@@@++ooo+++@@@@@@$+++o%%%%%%%%%",
"%o+@$@$@@@##@O@##@@@+o++++++++++oo%%%ooo+++++++ooo%%%%%%%%%%",
"%%o+$@@$@@@@@@@##@@+o%XOOXOXX.OO%%%%%%%%ooooooo%%%%%%%%%%%%%",
"%%o++@$@@$$@@O$@@@++o%OXXOOOXXXO%%%%%%%%%%%%%%%%%%%%%%%%%%%%",
"%%%oo+++@@@@@@$+++oo%%OOXXOOOOOO%%%%%%%%%%%%%%%%%%%%%%%%%%%%",
"%%%%%ooo+++++++ooo%%%%OOXOXXOXXO%%%%%%%%%%%%%%%%%%%%%%%%%%%%",
"%%%%%%%%ooooooo%%%%%%%OOXOOOXXOX%%%%%%%%%%%%%%%%%%%%%%%%%%%%",
"%%%%%%%%%%%%%%%%%%%%%%OXOOXXX.XX%%%%%%%%%%%%%%%%%%%%%%%%%%%%",
"%%%%%%%%%%%%%%%%%%%%%%OOOOOOOXXO%%%%%%%%%%%%%%%%%%%%%%%%%%%%",
"%%%%%%%%%%%%%%%%%%%%%%OOXOXOOOOO%%%%%%%%%%%%%%%%%%%%%%%%%%%%",
"%%%%%%%%%%%%%%%%%%%%%%OXOXOOOXOX%%%%%%%%%%%%%%%%%%%%%%%%%%%%",
"%%%%%%%%%%%%%%%%%%%%%OOOOOXXOOOXO%%%%%%%%%%%%%%%%%%%%%%%%%%%",
"%%%%%%%%%%%%%%%%%%%%%XXXXOOXOXOOO%%%%%%%%%%%%%%%%%%%%%%%%%%%",
"%%%%%%%%%%%%%%%%%%%%%OXOOOXXX.X.O%%%%%%%%%%%%%%%%%%%%%%%%%%%",
"%%%%%%%%%%%%%%%%%%%%%XXXOXXOXXOXOO%%%%%%%%%%%%%%%%%%%%%%%%%%",
"%%%%%%%%%%%%%%%%%%%%%XOOOXXOOOOXXO%%%%%%%%%%%%%%%%%%%%%%%%%%",
"%%%%%%%%%%%%%%%%%%%%OXOXOOX.XXOOOX%%%%%%%%%%%%%%%%%%%%%%%%%%",
"%%%%%%%%%%%%%%%%%%%%OXXOOOXXOOXXOO%%%%%%%%%%%%%%%%%%%%%%%%%%",
"%%%%%%%%%%%%%%%%%%%%OOXOX.XOOX.XOX%%%%%%%%%%%%%%%%%%%%%%%%%%",
"%%%%%%%%%%%%%%%%%%%OOXOXXXOXOXOXOO%%%%%%%%%%%%%%%%%%%%%%%%%%",
"%%%%%%%%%%%%%%%%%%%OXXOX.OOOOXOOXXO%%%%%%%%%%%%%%%%%%%%%%%%%",
"%%%%%%%%%%%%%%%%%%%OXOOX.XO.XO.XOXO%%%%%%%%%%%%%%%%%%%%%%%%%",
"%%%%%%%%%%%%%%%%%%%OXOOX.XO.OX XOXX%%%%%%%%%%%%%%%%%%%%%%%%%",
"%%%%%%%%%%%%%%%%%%OXOOOX.OX XO.XXOXO%%%%%%%%%%%%%%%%%%%%%%%%",
"%%%%%%%%%%%%%%%%%%OXOOOX.XX.XO..XOXO%%%%%%%%%%%%%%%%%%%%%%%%",
"%%%%%%%%%%%%%%%%%%OXOOXX.XO.XXX XOXX%%%%%%%%%%%%%%%%%%%%%%%%",
"%%%%%%%%%%%%%%%%%OOXOXX..XO XOX.XXOX%%%%%%%%%%%%%%%%%%%%%%%%",
"%%%%%%%%%%%%%%%%%OOOOX..XOX.XOX. XOXO%%%%%%%%%%%%%%%%%%%%%%%",
"%%%%%%%%%%%%%%%%%OOOXX.XOXX.XOXX.XXOX%%%%%%%%%%%%%%%%%%%%%%%",
"%%%%%%%%%%%%%%%%OOOXX..OXX .XOOX..XOXO%%%%%%%%%%%%%%%%%%%%%%",
"%%%%%%%%%%%%%%%%OXXX..XOX .XXOOXX XXOO%%%%%%%%%%%%%%%%%%%%%%",
"%%%%%%%%%%%%%%%OOX...XXOX.XXOXOOX..XOXO%%%%%%%%%%%%%%%%%%%%%",
"%%%%%%%%%%%%%%%OXX.XXXOOX XOOXXOXX XXOX%%%%%%%%%%%%%%%%%%%%%",
"%%%%%%%%%%%%%%OXX..XOOXOX.XOOOXOOX..XOOO%%%%%%%%%%%%%%%%%%%%",
"%%%%%%%%%%%%%OOX..XXOOXOX XOOOXOOXX.XOXO%%%%%%%%%%%%%%%%%%%%",
"%%%%%%%%%%%%OXXX.XXOOXOOX XOOXXXOOX XOXXO%%%%%%%%%%%%%%%%%%%",
"%%%%%%%%%%%OOXOX.XOOXOXOX.XOXOOXOOX.XOOXXO%%%%%%%%%%%%%%%%%%"
};
