/* XPM */
static char *result[] = {
/* columns rows colors chars-per-pixel */
"30 30 3 1 ",
"  c black",
". c red",
"X c None",
/* pixels */
"XXXXXXXXXX   ....   XXXXXXXXXX",
"XXXXXXXXXX   ....   XXXXXXXXXX",
"XXXXXXXXXX   ....   XXXXXXXXXX",
"XXXXXXXXXX   ....   XXXXXXXXXX",
"XXXXXXXXXX   ....   XXXXXXXXXX",
"XXXXXXXXXX   ....   XXXXXXXXXX",
"XXXXXXXXXX   ....   XXXXXXXXXX",
"XXXXXXXXXX   ....   XXXXXXXXXX",
"XXXXXXXXXX   ....   XXXXXXXXXX",
"XXXXXXXXXX   ....   XXXXXXXXXX",
"             ....             ",
"             ....             ",
"             ....             ",
"..............................",
"..............................",
"..............................",
"..............................",
"             ....             ",
"             ....             ",
"             ....             ",
"XXXXXXXXXX   ....   XXXXXXXXXX",
"XXXXXXXXXX   ....   XXXXXXXXXX",
"XXXXXXXXXX   ....   XXXXXXXXXX",
"XXXXXXXXXX   ....   XXXXXXXXXX",
"XXXXXXXXXX   ....   XXXXXXXXXX",
"XXXXXXXXXX   ....   XXXXXXXXXX",
"XXXXXXXXXX   ....   XXXXXXXXXX",
"XXXXXXXXXX   ....   XXXXXXXXXX",
"XXXXXXXXXX   ....   XXXXXXXXXX",
"XXXXXXXXXX   ....   XXXXXXXXXX"
};
