/* XPM */
static char *dmljdG9yeQ__[] = {
/* columns rows colors chars-per-pixel */
"60 60 240 2 ",
"   c #0A5FDF",
".  c #0B5FDF",
"X  c #136FCF",
"o  c #1777C7",
"O  c #1778C7",
"+  c #1879C5",
"@  c #187AC5",
"#  c #197AC5",
"$  c #1879C6",
"%  c #1878C7",
"&  c #1879C7",
"*  c #1573CB",
"=  c #1675C9",
"-  c #1777C8",
";  c #1676C9",
":  c #1776C9",
">  c #1777C9",
",  c #1574CB",
"<  c #1675CA",
"1  c #1674CB",
"2  c #1675CB",
"3  c #1370CF",
"4  c #1471CD",
"5  c #1573CC",
"6  c #1472CD",
"7  c #1572CD",
"8  c #1573CD",
"9  c #1471CE",
"0  c #1470CF",
"q  c #1471CF",
"w  c #0E67D7",
"e  c #0F67D7",
"r  c #0F69D5",
"t  c #0F6AD5",
"y  c #0F68D6",
"u  c #0F69D6",
"i  c #0E68D7",
"p  c #0F68D7",
"a  c #0F69D7",
"s  c #0C63DB",
"d  c #0D63DB",
"f  c #0D65D9",
"g  c #0E65D9",
"h  c #0D66D9",
"j  c #0E66D8",
"k  c #0E67D8",
"l  c #0F67D8",
"z  c #0E66D9",
"x  c #0F66D9",
"c  c #0E67D9",
"v  c #0F67D9",
"b  c #0D64DA",
"n  c #0D65DA",
"m  c #0C64DB",
"M  c #0D64DB",
"N  c #0D65DB",
"B  c #0E65DA",
"V  c #0E64DB",
"C  c #0E65DB",
"Z  c #0E66DA",
"A  c #0E66DB",
"S  c #0B61DD",
"D  c #0B62DD",
"F  c #0B60DE",
"G  c #0B61DE",
"H  c #0A60DF",
"J  c #0B60DF",
"K  c #0B61DF",
"L  c #0C61DD",
"P  c #0C62DC",
"I  c #0C63DC",
"U  c #0D63DC",
"Y  c #0C62DD",
"T  c #0D62DD",
"R  c #0C63DD",
"E  c #0D63DD",
"W  c #0C61DE",
"Q  c #0C60DF",
"!  c #0C61DF",
"~  c #0C62DE",
"^  c #0C62DF",
"/  c #0D64DC",
"(  c #0D64DD",
")  c #0F68D8",
"_  c #0F68D9",
"`  c #116BD3",
"'  c #126DD1",
"]  c #136FD0",
"[  c #126ED1",
"{  c #136ED1",
"}  c #136FD1",
"|  c #116CD3",
" . c #126DD2",
".. c #126CD3",
"X. c #126DD3",
"o. c #1069D5",
"O. c #106AD4",
"+. c #116BD4",
"@. c #106AD5",
"#. c #116AD5",
"$. c #106BD5",
"%. c #116BD5",
"&. c #1069D6",
"*. c #1068D7",
"=. c #1069D7",
"-. c #106AD6",
";. c #106AD7",
":. c #024EEF",
">. c #024FEF",
",. c #034FEF",
"<. c #0657E7",
"1. c #0757E7",
"2. c #0759E5",
"3. c #075AE5",
"4. c #0758E6",
"5. c #0759E6",
"6. c #0658E7",
"7. c #0758E7",
"8. c #0759E7",
"9. c #085BE3",
"0. c #095BE3",
"q. c #095DE1",
"w. c #0A5DE1",
"e. c #095EE1",
"r. c #0A5EE0",
"t. c #0A5FE0",
"y. c #0B5FE0",
"u. c #0A5EE1",
"i. c #0B5EE1",
"p. c #0A5FE1",
"a. c #0B5FE1",
"s. c #095CE2",
"d. c #095DE2",
"f. c #085CE3",
"g. c #095CE3",
"h. c #095DE3",
"j. c #0A5DE2",
"k. c #0A5CE3",
"l. c #0A5DE3",
"z. c #0A5EE2",
"x. c #0A5EE3",
"c. c #0859E5",
"v. c #085AE4",
"b. c #085BE4",
"n. c #095BE4",
"m. c #085AE5",
"M. c #095AE5",
"N. c #085BE5",
"B. c #095BE5",
"V. c #0859E6",
"C. c #0858E7",
"Z. c #0859E7",
"A. c #085AE6",
"S. c #085AE7",
"D. c #095CE4",
"F. c #095CE5",
"G. c #0452EB",
"H. c #0453EB",
"J. c #0553EB",
"K. c #0554E9",
"L. c #0555E9",
"P. c #0655E9",
"I. c #0556E9",
"U. c #0656E8",
"Y. c #0657E8",
"T. c #0757E8",
"R. c #0656E9",
"E. c #0756E9",
"W. c #0657E9",
"Q. c #0757E9",
"!. c #0554EA",
"~. c #0555EA",
"^. c #0454EB",
"/. c #0554EB",
"(. c #0555EB",
"). c #0655EA",
"_. c #0654EB",
"`. c #0655EB",
"'. c #0656EA",
"]. c #0656EB",
"[. c #0350ED",
"{. c #0351ED",
"}. c #0352ED",
"|. c #0350EE",
" X c #0351EE",
".X c #0250EF",
"XX c #0350EF",
"oX c #0351EF",
"OX c #0451ED",
"+X c #0452EC",
"@X c #0453EC",
"#X c #0553EC",
"$X c #0452ED",
"%X c #0552ED",
"&X c #0453ED",
"*X c #0553ED",
"=X c #0451EE",
"-X c #0450EF",
";X c #0451EF",
":X c #0452EE",
">X c #0452EF",
",X c #0554EC",
"<X c #0554ED",
"1X c #0758E8",
"2X c #0758E9",
"3X c #004AF3",
"4X c #004BF3",
"5X c #014BF3",
"6X c #014CF1",
"7X c #014DF1",
"8X c #024DF1",
"9X c #014EF1",
"0X c #024EF0",
"qX c #024FF0",
"wX c #034FF0",
"eX c #024EF1",
"rX c #034EF1",
"tX c #024FF1",
"yX c #034FF1",
"uX c #014CF2",
"iX c #014DF2",
"pX c #004CF3",
"aX c #014CF3",
"sX c #014DF3",
"dX c #024DF2",
"fX c #024CF3",
"gX c #024DF3",
"hX c #024EF2",
"jX c #024EF3",
"kX c #004AF4",
"lX c #004BF4",
"zX c #014BF4",
"xX c #014BF5",
"cX c #014CF4",
"vX c #014CF5",
"bX c #0350F0",
"nX c #0350F1",
"mX c #0B60E0",
"MX c #0B60E1",
"NX c None",
/* pixels */
"NXNXNXNXNXNXNXNXNXNXNXNXNXNXNXNXNXNXNXNXNXNXNXNXNXNXNXNXNXNXNXNXNXNXNXNXNXNXNXNXNXNXNXNXNXNXNXNXNXNXNXNXNXNXNXNXNXNXNXNX",
"NXNXNXNXNXNXNXNXNXNXNXNXNXNXNXNXNXNXNXNXNXNXNXNXNXNXNXNXNXNXNXNXNXNXNXNXNXNXNXNXNXNXNXNXNXNXNXNXNXNXNXNXNXNXNXNXNXNXNXNX",
"NXNXNXNXNXNXNXNXNXNXNXNXNXNXNXNXNXNXNXNXNXNXNXNXNXNXNXNXNXNXNXNXNXNXNXNXNXNXNXNXNXNXNXNXNXNXNXNXNXNXNXNXNXNXNXNXNXNXNXNX",
"NXNXNXNXNXNXNXNXNXNXNXNXNXNXNXNXNXNXNXNXNXNXNXNXNXNXNXNXNXNXNXNXNXNXNXNXNXNXNXNXNXNXNXNXNXNXNXNXNXNXNXNXNXNXNXNXNXNXNXNX",
"NXNXNXNXNXNXNXNXNXNXNXNXNXNXNXNXNXNXNXNXNXNXNXNXNXNXNXNXNXNXNXNXNXNXNXNXNXNXNXNXNXNXNXNXNXNXNXNXNXNXNXNXNXNXNXNXNXNXNXNX",
"NXNXNXNXNXNXNXNXNXNXNXNXNXNXNXNXNXNXNXNXNXNXNXNXNXNXNXNXNXNXNXNXNXNXNXNXNXNXNXNXNXNXNXNXNXNXNXNXNXNXNXNXNXNXNXNXNXNXNXNX",
"^.^.#X^.NXNXNXNXNXNXNXNXNXNXNXNX,X}.^.^.NXNXNXNXNXNXNXNXJ.}.#XrX>.#X^.^.NXNXNXNXNXNXNXNXmXmXr.k.NXNXNXNXNXNXNXNXmXmXmXmX",
"^.^.#X#XNXNXNXNXNXNXNXNXNXNXNXNX}.#X^.^.NXNXNXNXNXNXNXNX#X}.5XkXrX>.J.,XNXNXNXNXNXNXNXNXr.r.k.k.NXNXNXNXNXNXNXNXmXk.k.mX",
"^.#XwX#XNXNXNXNXNXNXNXNXNXNXNXNXrX}.&X}.NXNXNXNXNXNXNXNX#XrX5XrXkXrX>.H.NXNXNXNXNXNXNXNX    M.N.NXNXNXNXNXNXNXNXk.k.k.MX",
"#X#XrXrXNXNXNXNXNXNXNXNXNXNXNXNXrXbXbX}.NXNXNXNXNXNXNXNX}.rX5X5XrXrXH.J.NXNXNXNXNXNXNXNXM.M.M.N.NXNXNXNXNXNXNXNXk.3.S.k.",
"rXrXkXkXNXNXNXNXNXNXNXNXNXNXNXNXkXvXrX}.NXNXNXNX4.N.^.^.NXNXNXNXNXNXNXNX^.#X,X1XNXNXNXNXr.4.N.E.NXNXNXNXNXNXNXNXS.S.S.3.",
"rXkXrXvXNXNXNXNXNXNXNXNXNXNXNXNXrX5XrXrXNXNXNXNX4.^.^.#XNXNXNXNXNXNXNXNX#X#X#X,XNXNXNXNX4.4.E.E.NXNXNXNXNXNXNXNXS.S.S.3.",
"bXrXkXrXNXNXNXNXNXNXNXNXNXNXNXNXkXrXrX}.NXNXNXNX^.^.}.rXNXNXNXNXNXNXNXNXbXrXbX}.NXNXNXNXN.E.^.J.NXNXNXNXNXNXNXNX1X].1X1X",
"}.bX>.rXNXNXNXNXNXNXNXNXNXNXNXNXrXrXrX}.NXNXNXNX^.}.rXrXNXNXNXNXNXNXNXNXvXvXvXbXNXNXNXNXN.^.^.#XNXNXNXNXNXNXNXNX,X&X].1X",
"NXNXNXNX/ J r.N.4.1.#X#XvX#X}.^.NXNXNXNXNXNXNXNX}.}.kXvXNXNXNXNXNXNXNXNXrXvXvXbXNXNXNXNX^.^.rX}.NXNXNXNXNXNXNXNX&XbX,X].",
"NXNXNXNXJ r.N.N.^.^.,.rXrXkXrX,XNXNXNXNXNXNXNXNXrXrXkXrXNXNXNXNXNXNXNXNXbXvXrXbXNXNXNXNX#X}.rXvXNXNXNXNXNXNXNXNXbXnXbX&X",
"NXNXNXNX. N.N.^.#X}.rXvXrXkXrX}.NXNXNXNXNXNXNXNX}.rXrXkXNXNXNXNXNXNXNXNXbXrXbX,XNXNXNXNX}.rXrXvXNXNXNXNXNXNXNXNXvXrXvXbX",
"NXNXNXNXy.r.N.N.^.,XbXrXkXrXbX^.NXNXNXNXNXNXNXNX^.}.rXrXNXNXNXNXNXNXNXNX#XbX,X,XNXNXNXNXrXkXkXkXNXNXNXNXNXNXNXNXvXvXvXrX",
"NXNXNXNXNXNXNXNX4.^.^.}.NXNXNXNXNXNXNXNXNXNXNXNX^.H.}.rXNXNXNXNXNXNXNXNX,X,X,X1XNXNXNXNX#XrX5XkXNXNXNXNXNXNXNXNXrXvXrXbX",
"NXNXNXNXNXNXNXNXk.N.^.#XNXNXNXNXNXNXNXNXNXNXNXNXN.1X#X}.NXNXNXNXNXNXNXNXZ.,XZ.1XNXNXNXNX#X}.rXrXNXNXNXNXNXNXNXNX}.rXbX,X",
"NXNXNXNXNXNXNXNXr.k.1X^.NXNXNXNXNXNXNXNXNXNXNXNXN.1.^.#XNXNXNXNXNXNXNXNXk.^.1XN.NXNXNXNX^.,X#XvXNXNXNXNXNXNXNXNX}.bX,X,X",
"NXNXNXNXNXNXNXNXJ r.k.N.NXNXNXNXNXNXNXNXNXNXNXNXN.N.N.1.NXNXNXNXNXNXNXNXZ.Z.N.N.NXNXNXNXN.^.#X#XNXNXNXNXNXNXNXNX,X,X,X1X",
"NXNXNXNXNXNXNXNXV J r.N.NXNXNXNXNXNXNXNXNXNXNXNXNXNXNXNXE.^.#X#X#XwXbX,XNXNXNXNXNXNXNXNXNXNXNXNX>.5X>.}.J.J.^.^.NXNXNXNX",
"NXNXNXNXNXNXNXNX/ T mXr.NXNXNXNXNXNXNXNXNXNXNXNXNXNXNXNX#X#X#XbXbXvXbXbXNXNXNXNXNXNXNXNXNXNXNXNXrX5X5XrX,.J.J.^.NXNXNXNX",
"NXNXNXNXNXNXNXNXV V J J NXNXNXNXNXNXNXNXNXNXNXNXNXNXNXNX^.}.wXwXkXvX5XrXNXNXNXNXNXNXNXNXNXNXNXNX5X5X5XrXrX>.H.J.NXNXNXNX",
"NXNXNXNXNXNXNXNXV V V m NXNXNXNXNXNXNXNXNXNXNXNXNXNXNXNX#X#XrX5XkXrXkXrXNXNXNXNXNXNXNXNXNXNXNXNXrX5XrXrX>.}.H.J.NXNXNXNX",
"NXNXNXNXNXNXNXNXNXNXNXNXNXNXNXNXNXNXNXNXNXNXNXNXNXNXNXNXNXNXNXNXNXNXNXNXNXNXNXNXNXNXNXNXNXNXNXNXNXNXNXNXNXNXNXNXNXNXNXNX",
"NXNXNXNXNXNXNXNXNXNXNXNXNXNXNXNXNXNXNXNXNXNXNXNXNXNXNXNXNXNXNXNXNXNXNXNXNXNXNXNXNXNXNXNXNXNXNXNXNXNXNXNXNXNXNXNXNXNXNXNX",
"NXNXNXNXNXNXNXNXNXNXNXNXNXNXNXNXNXNXNXNXNXNXNXNXNXNXNXNXNXNXNXNXNXNXNXNXNXNXNXNXNXNXNXNXNXNXNXNXNXNXNXNXNXNXNXNXNXNXNXNX",
"NXNXNXNXNXNXNXNXNXNXNXNXNXNXNXNXNXNXNXNXNXNXNXNXNXNXNXNXNXNXNXNXNXNXNXNXNXNXNXNXNXNXNXNXNXNXNXNXNXNXNXNXNXNXNXNXNXNXNXNX",
"NXNXNXNXNXNXNXNXNXNXNXNXNXNXNXNXNXNXNXNXNXNXNXNXNXNXNXNXNXNXNXNXNXNXNXNXNXNXNXNXNXNXNXNXNXNXNXNXNXNXNXNXNXNXNXNXNXNXNXNX",
"NXNXNXNXNXNXNXNXNXNXNXNXNXNXNXNXNXNXNXNXNXNXNXNXNXNXNXNXNXNXNXNXNXNXNXNXNXNXNXNXNXNXNXNXNXNXNXNXNXNXNXNXNXNXNXNXNXNXNXNX",
"NXNX%.%.y y NXNXNXNXNXNXNXNXNXNXNXNXV V i t NXNXNXNXV J y.E.E.E.y.y.V V %.` NXNXNXNX/ mXmXS.NXNXNXNXNXNXNXNXy y t } NXNX",
"NXNXy y ) ) NXNXNXNXNXNXNXNXNXNXNXNXV J m ) NXNXNXNXmXr.N.E.#XE.E.y.T T V e NXNXNXNXmXmXZ.k.NXNXNXNXNXNXNXNXV y t $.NXNX",
"NXNXy ) ) ) NXNXNXNXNXNXNXNXNXNXNXNXr.r.mXm NXNXNXNXr.Z.^.bXwX#XJ.N.N.T T ) NXNXNXNXr.k.k.].NXNXNXNXNXNXNXNXV V V %.NXNX",
"NXNXy V R V NXNXNXNXNXNXNXNXNXNXNXNXf.4.f.J NXNXNXNXN.^.#XwXfX,.#XJ.M.N.T T NXNXNXNXk.N.,X].NXNXNXNXNXNXNXNXJ V ) ) NXNX",
"NXNX) J J J NXNXNXNXNXNXNXNXNXNXNXNX^.1X^.r.NXNXNXNXNXNXNXNXvX5XwX#XNXNXNXNXNXNXNXNXk.^.,X,XbXbXrXrXNXNXNXNXJ mXV V NXNX",
"NXNXJ J 4.J NXNXNXNXNXNXNXNXNXNXNXNX1X#X^.4.NXNXNXNXNXNXNXNXvXkXwX5XNXNXNXNXNXNXNXNX1X,X,XbXbXrXvXvXNXNXNXNXN.r.J V NXNX",
"NXNXmX4.4.3.NXNXNXNXNXNXNXNXNXNXNXNX}.bX#X^.NXNXNXNXNXNXNXNXkXvXrX#XNXNXNXNXNXNXNXNX,X}.}.bXvXnXvXrXNXNXNXNX1XN.J J NXNX",
"NXNX4.4.&X6.NXNXNXNXNXNXNXNXNXNXNXNX}.rX#X^.NXNXNXNXNXNXNXNXwXwX#X#XNXNXNXNXNXNXNXNX1X,X,XbXbXvXvXkXNXNXNXNX#XN.f.J NXNX",
"NXNX^.}.}.}.NXNXNXNX5X5XrXrXNXNXNXNXrXkXvX}.NXNXNXNXNXNXNXNXwX#X,Xk.NXNXNXNXNXNXNXNXS.1X,X,XNXNXNXNXy.N.4.#X#X}.N.r.NXNX",
"NXNX^.}.rX}.NXNXNXNX5X5XkXrXNXNXNXNXkXrXkXrXNXNXNXNXNXNXNXNX#X#XN.k.NXNXNXNXNXNXNXNXk.1X1XbXNXNXNXNXk.Z.#X}.vX#X#X^.NXNX",
"NXNXbXrXkXvXNXNXNXNXrX5XrXrXNXNXNXNXrXvXrXbXNXNXNXNXNXNXNXNX^.N.k.mXNXNXNXNXNXNXNXNXmXk.S.1XNXNXNXNX^.#X}.vXrXkXrX^.NXNX",
"NXNXrXkXrX5XNXNXNXNX>.rX>.>.NXNXNXNX>.rXrX^.NXNXNXNXNXNXNXNXN.k.T / NXNXNXNXNXNXNXNXmXr.MX1XNXNXNXNX^.#XrXkXrXkXrXbXNXNX",
"NXNX}.rXkXrXbX}.1X3.NXNXNXNXJ r.4.^.^.}.#X#XNXNXNXNXNXNXNXNXr.T T V NXNXNXNXNXNXNXNX/ mXk.MXNXNXNXNXNXNXNXNXkXrX}.E.NXNX",
"NXNX}.rXrX}.&X4.3.mXNXNXNXNX/ r.k.4.^.^.,XN.NXNXNXNXNXNXNXNXmX/ V %.NXNXNXNXNXNXNXNX/ R MXmXNXNXNXNXNXNXNXNXrX#X^.^.NXNX",
"NXNX^.^.}.^.^.f.mXJ NXNXNXNXV m J f.4.^.N.N.NXNXNXNXNXNXNXNXV V ) %.NXNXNXNXNXNXNXNX) / / mXNXNXNXNXNXNXNXNXbX^.^.r.NXNX",
"NXNX3.4.^.^.f.mXR V NXNXNXNXy y m J f.4.r.J NXNXNXNXNXNXNXNXe e %.} NXNXNXNXNXNXNXNXV ) / mXNXNXNXNXNXNXNXNX^.E.r.y.NXNX",
"NXNXMXf.^.r.NXNXNXNXNXNXNXNXNXNXNXNXJ f.J R NXNXNXNX9 } $.%.e ` ` X 9 ; ; $ NXNXNXNX;.y V V NXNXNXNXNXNXNXNX1Xk.mXs NXNX",
"NXNXR r.f.f.NXNXNXNXNXNXNXNXNXNXNXNXm J R t NXNXNXNX; q } } %.` } 9 9 ; - - NXNXNXNX;.V ) V NXNXNXNXNXNXNXNXk.mXJ R NXNX",
"NXNXV R r.R NXNXNXNXNXNXNXNXNXNXNXNXy R y y NXNXNXNX; 2 9 X } } 9 2 ; o $ $ NXNXNXNX%.;.) ) NXNXNXNXNXNXNXNXr.mX/ ) NXNX",
"NXNXy / J V NXNXNXNXNXNXNXNXNXNXNXNXy y y $.NXNXNXNX> > 9 9 } 9 9 - ; $ $ $ NXNXNXNX%.%.t ) NXNXNXNXNXNXNXNXR / V ) NXNX",
"NXNXNXNXNXNXNXNXNXNXNXNXNXNXNXNXNXNXNXNXNXNXNXNXNXNXNXNXNXNXNXNXNXNXNXNXNXNXNXNXNXNXNXNXNXNXNXNXNXNXNXNXNXNXNXNXNXNXNXNX",
"NXNXNXNXNXNXNXNXNXNXNXNXNXNXNXNXNXNXNXNXNXNXNXNXNXNXNXNXNXNXNXNXNXNXNXNXNXNXNXNXNXNXNXNXNXNXNXNXNXNXNXNXNXNXNXNXNXNXNXNX",
"NXNXNXNXNXNXNXNXNXNXNXNXNXNXNXNXNXNXNXNXNXNXNXNXNXNXNXNXNXNXNXNXNXNXNXNXNXNXNXNXNXNXNXNXNXNXNXNXNXNXNXNXNXNXNXNXNXNXNXNX",
"NXNXNXNXNXNXNXNXNXNXNXNXNXNXNXNXNXNXNXNXNXNXNXNXNXNXNXNXNXNXNXNXNXNXNXNXNXNXNXNXNXNXNXNXNXNXNXNXNXNXNXNXNXNXNXNXNXNXNXNX",
"NXNXNXNXNXNXNXNXNXNXNXNXNXNXNXNXNXNXNXNXNXNXNXNXNXNXNXNXNXNXNXNXNXNXNXNXNXNXNXNXNXNXNXNXNXNXNXNXNXNXNXNXNXNXNXNXNXNXNXNX",
"NXNXNXNXNXNXNXNXNXNXNXNXNXNXNXNXNXNXNXNXNXNXNXNXNXNXNXNXNXNXNXNXNXNXNXNXNXNXNXNXNXNXNXNXNXNXNXNXNXNXNXNXNXNXNXNXNXNXNXNX",
"NXNXNXNXNXNXNXNXNXNXNXNXNXNXNXNXNXNXNXNXNXNXNXNXNXNXNXNXNXNXNXNXNXNXNXNXNXNXNXNXNXNXNXNXNXNXNXNXNXNXNXNXNXNXNXNXNXNXNXNX",
"NXNXNXNXNXNXNXNXNXNXNXNXNXNXNXNXNXNXNXNXNXNXNXNXNXNXNXNXNXNXNXNXNXNXNXNXNXNXNXNXNXNXNXNXNXNXNXNXNXNXNXNXNXNXNXNXNXNXNXNX"
};
